<?xml version="1.0" encoding="UTF-8"?><svg xmlns="http://www.w3.org/2000/svg" viewBox="0 0 288 156.79014"><defs><style>.cls-1,.cls-2{mix-blend-mode:multiply;}.cls-1,.cls-3{fill:#f5989e;}.cls-1,.cls-3,.cls-4,.cls-5,.cls-6{stroke-width:0px;}.cls-7{stroke:#3b7e91;stroke-width:.69375px;}.cls-7,.cls-2{fill:none;stroke-miterlimit:10;}.cls-2{stroke:#f5989e;stroke-width:1.0824px;}.cls-8{isolation:isolate;}.cls-4{fill:#f7e288;}.cls-5{fill:#399a75;}.cls-6{fill:#3b7e91;}</style></defs><g class="cls-8"><g id="Layer_1"><path class="cls-6" d="m71.71427,96.76724l-.01207-.08693c-.00783-.16937-.02968-.33409-.06838-.49347l-4.04697-29.19314-10.0068-.82133-5.44235,29.81525c-.07757.2345-.12771.48064-.13499.7394l-.00733.04023h.0033c-.00013.01114-.0033.02147-.0033.03265,0,1.43578,1.16393,2.59976,2.59976,2.59976,1.1058,0,2.04413-.69329,2.41992-1.66659.37576.97331,1.31404,1.66659,2.41988,1.66659s2.04408-.69329,2.41988-1.66655c.3758.97326,1.31408,1.66655,2.41988,1.66655s2.04417-.69329,2.41992-1.66659c.37576.97331,1.31404,1.66659,2.41988,1.66659,1.43582,0,2.59976-1.16398,2.59976-2.59976,0-.01118-.00318-.02151-.0033-.03265h.0033Z"/><path class="cls-5" d="m102.19697,21.42441s4.92095,19.4129-5.71902,17.39037c-10.63997-2.02252,5.71902-17.39037,5.71902-17.39037Z"/><line class="cls-2" x1="96.69143" y1="38.84678" x2="100.20815" y2="29.78929"/><path class="cls-5" d="m109.37296,16.36149s19.32052,5.27198,12.32272,13.5382-12.32272-13.5382-12.32272-13.5382Z"/><line class="cls-2" x1="121.82862" y1="29.72961" x2="115.67537" y2="22.2101"/><path class="cls-5" d="m134.65253,10.3389s3.7922,19.66458-6.71329,17.03127c-10.50549-2.63331,6.71329-17.03127,6.71329-17.03127Z"/><line class="cls-2" x1="128.15052" y1="27.41444" x2="132.18419" y2="18.57504"/><path class="cls-5" d="m143.01572,8.42396s10.86982,16.91995.07767,17.83044c-10.79216.91049-.07767-17.83044-.07767-17.83044Z"/><line class="cls-2" x1="143.33915" y1="25.88317" x2="144.29308" y2="16.21386"/><path class="cls-5" d="m177.04222,16.94914s-19.32052,5.27198-12.32272,13.5382,12.32272-13.5382,12.32272-13.5382Z"/><line class="cls-2" x1="164.58656" y1="30.31726" x2="170.7398" y2="22.79775"/><path class="cls-5" d="m151.76265,10.92655s-3.7922,19.66458,6.71329,17.03127c10.50549-2.63331-6.71329-17.03127-6.71329-17.03127Z"/><line class="cls-2" x1="158.26466" y1="28.00209" x2="154.23099" y2="19.16268"/><path class="cls-3" d="m118.20057,39.26784c-.15049-.10227-.30705-.17877-.46132-.26619.28496-.1582.56526-.33993.83578-.54984,2.09557-1.62592,2.8322-4.18404,1.6453-5.7138-1.18692-1.52968-3.84779-1.45169-5.94336.17423-.24468.1898-.46671.39459-.67343.60672-.06186-.30722-.14728-.61725-.25859-.9263-.89875-2.49545-3.10407-3.98653-4.92572-3.33043-1.82163.65602-2.56977,3.21088-1.67099,5.70625.02759.07649.06688.14288.09688.21743-2.57849.14031-4.60067,1.74178-4.54075,3.63967.06108,1.93523,2.25967,3.4362,4.91071,3.35255.01469-.00047.02807-.00395.0427-.00452-.08892.21592-.17928.43106-.24667.66313-.73965,2.54707.16807,5.04968,2.02741,5.58962,1.85934.53994,3.96631-1.08723,4.70596-3.6343.01113-.03833.01384-.07603.02425-.11431.15991.13263.31429.26917.49152.38956,2.19389,1.49057,4.85446,1.40066,5.94256-.20076,1.08813-1.60151.19165-4.10813-2.00224-5.59871Z"/><circle class="cls-4" cx="111.55624" cy="38.88636" r=".63298"/><path class="cls-3" d="m149.141,31.33156c-.11196-.14343-.23759-.26418-.3577-.39463.3197-.06337.64218-.15058.96397-.26761,2.49268-.90639,3.97702-3.11622,3.31538-4.93587-.66169-1.81958-3.2187-2.55986-5.71139-1.65347-.29103.10579-.5651.23278-.82682.37145.03515-.31141.04874-.63271.03738-.96099-.09172-2.65077-1.73474-4.74535-3.66978-4.67838-1.935.06691-3.4293,2.27011-3.33753,4.92082.00285.08126.01994.15649.02567.23665-2.49766-.65573-4.91299.24985-5.43692,2.07497-.53424,1.86103,1.09934,3.96296,3.64872,4.69484.01413.00405.02793.00483.04203.00876-.15074.17833-.30262.35549-.43782.55579-1.48383,2.19839-1.38576,4.85872.21904,5.94191,1.6048,1.08318,4.10873.17909,5.59256-2.01929.02233-.03308.03645-.06815.05808-.1014.11163.17521.21681.35246.34868.52132,1.63229,2.0906,4.19266,2.81943,5.71875,1.62796,1.52613-1.19154,1.44-3.85226-.19229-5.94285Z"/><circle class="cls-4" cx="142.93241" cy="28.93449" r=".63298"/><path class="cls-3" d="m85,45.60751c-.15049-.10227-.30705-.17877-.46132-.26619.28496-.1582.56526-.33993.83578-.54984,2.09557-1.62592,2.8322-4.18404,1.6453-5.7138-1.18692-1.52968-3.84779-1.45169-5.94336.17423-.24468.1898-.46671.39459-.67343.60672-.06186-.30722-.14728-.61725-.25859-.9263-.89875-2.49545-3.10407-3.98653-4.92572-3.33043-1.82163.65602-2.56977,3.21088-1.67099,5.70625.02759.07649.06688.14288.09688.21743-2.57849.14031-4.60067,1.74178-4.54075,3.63967.06108,1.93523,2.25967,3.4362,4.91071,3.35255.01469-.00047.02807-.00395.0427-.00452-.08892.21592-.17928.43106-.24667.66313-.73965,2.54707.16807,5.04968,2.02741,5.58962s3.96631-1.08723,4.70596-3.6343c.01113-.03833.01384-.07603.02425-.11431.15991.13263.31429.26917.49152.38956,2.19389,1.49057,4.85446,1.40066,5.94256-.20076,1.08813-1.60151.19165-4.10813-2.00224-5.59871Z"/><circle class="cls-4" cx="78.35568" cy="45.22603" r=".63298"/><path class="cls-4" d="m133.12905,32.15945c-.155-.0953-.31489-.16458-.47299-.24486.27744-.17104.54916-.36537.80982-.58741,2.01919-1.71985,2.63833-4.30891,1.38287-5.78292-1.25548-1.47393-3.91003-1.27461-5.92922.44524-.23577.20076-.44822.41547-.64504.63682-.07581-.30408-.17529-.60989-.30058-.91353-1.01168-2.45184-3.28274-3.84074-5.07256-3.10221-1.7898.73846-2.42058,3.3248-1.40888,5.77656.03105.07515.07333.13968.1067.21279-2.5694.25782-4.5164,1.94989-4.36995,3.84307.14932,1.93043,2.41411,3.32951,5.05857,3.12499.01465-.00114.02786-.00523.04245-.00647-.07897.21975-.15942.43879-.21615.6737-.62266,2.57817.39831,5.03675,2.28035,5.49129,1.88204.45453,3.91257-1.26708,4.53523-3.84525.00937-.0388.01035-.07659.01901-.1153.16579.12519.32625.25455.50879.36672,2.25962,1.38891,4.91331,1.1777,5.92721-.47171,1.01392-1.64949.004-4.1126-2.25562-5.50151Z"/><circle class="cls-1" cx="126.47424" cy="32.08154" r=".63298"/><path class="cls-4" d="m101.22767,43.21614c-.12166-.13529-.25538-.24703-.38427-.3688.31452-.08545.63016-.19487.94303-.33399,2.42363-1.07753,3.75072-3.38521,2.96415-5.15445-.78661-1.76916-3.38891-2.32986-5.81253-1.25233-.28297.12577-.54754.27151-.79899.42805.01342-.3131.00463-.63456-.02953-.96126-.27582-2.63798-2.0605-4.61325-3.9862-4.41188-1.92566.20129-3.26315,2.50307-2.98729,5.14098.00849.08087.03077.15473.04206.23429-2.53721-.48047-4.88373.59086-5.27948,2.44799-.40355,1.89367,1.37224,3.87693,3.96633,4.42977.01438.00306.0282.00288.04254.00582-.13798.18838-.27717.37567-.39811.58489-1.32738,2.29624-1.04457,4.94332.63167,5.9123,1.67624.96897,4.11124-.10703,5.43861-2.40327.01997-.03455.03162-.07052.05089-.10519.12355.16702.24079.33653.38409.49581,1.77371,1.97204,4.37856,2.52108,5.8181,1.22638,1.43959-1.29478,1.16865-3.94306-.60505-5.9151Z"/><circle class="cls-1" cx="94.86743" cy="41.25657" r=".63298"/><path class="cls-6" d="m74.8484,56.35003c0,4.84106-3.01053,8.97897-7.26154,10.6437-1.29051.50537-2.69534.78282-4.16497.78282-2.13456,0-4.13242-.5853-5.84184-1.60417-3.34436-1.99334-5.58468-5.64622-5.58468-9.82235,0-6.31069,5.11582-11.42651,11.42651-11.42651s11.42651,5.11582,11.42651,11.42651Z"/><ellipse class="cls-6" cx="56.66396" cy="41.77945" rx="5.77127" ry="7.24158" transform="translate(-11.08223 22.62794) rotate(-20.61675)"/><ellipse class="cls-6" cx="69.85343" cy="42.3018" rx="7.24158" ry="5.77127" transform="translate(13.11501 101.03591) rotate(-77.18837)"/><path class="cls-5" d="m185.26303,21.42441s-4.92095,19.4129,5.71902,17.39037c10.63997-2.02252-5.71902-17.39037-5.71902-17.39037Z"/><line class="cls-2" x1="190.76856" y1="38.84678" x2="187.25185" y2="29.78929"/><path class="cls-3" d="m167.25719,44.86654c1.0881,1.60143,3.74867,1.69134,5.94256.20076.17723-.12038.33162-.25693.49152-.38956.01041.03827.01312.07598.02425.11431.73965,2.54707,2.84662,4.17424,4.70596,3.6343s2.76706-3.04255,2.02741-5.58962c-.06739-.23207-.15775-.44722-.24667-.66313.01463.00057.02801.00405.0427.00452,2.65103.08365,4.84962-1.41732,4.91071-3.35255.05992-1.89789-1.96226-3.49936-4.54075-3.63967.02999-.07456.06929-.14094.09688-.21743.89878-2.49537.15064-5.05023-1.67099-5.70625-1.82165-.6561-4.02697.83498-4.92572,3.33043-.11131.30904-.19673.61907-.25859.9263-.20671-.21213-.42874-.41693-.67343-.60672-2.09557-1.62592-4.75644-1.70391-5.94336-.17423-1.1869,1.52976-.45027,4.08788,1.6453,5.7138.27051.20991.55082.39165.83578.54984-.15427.08741-.31084.16392-.46132.26619-2.19389,1.49057-3.09036,3.9972-2.00224,5.59871Z"/><circle class="cls-4" cx="175.90376" cy="38.88636" r=".63298"/><path class="cls-3" d="m200.45776,51.20622c1.0881,1.60143,3.74867,1.69134,5.94256.20076.17723-.12038.33162-.25693.49152-.38956.01041.03827.01312.07598.02425.11431.73965,2.54707,2.84662,4.17424,4.70596,3.6343,1.85934-.53994,2.76706-3.04255,2.02741-5.58962-.06739-.23207-.15775-.44722-.24667-.66313.01463.00057.02801.00405.0427.00452,2.65103.08365,4.84962-1.41732,4.91071-3.35255.05992-1.89789-1.96226-3.49936-4.54075-3.63967.02999-.07456.06929-.14094.09688-.21743.89878-2.49537.15064-5.05023-1.67099-5.70625-1.82165-.6561-4.02697.83498-4.92572,3.33043-.11131.30904-.19673.61907-.25859.9263-.20671-.21213-.42874-.41693-.67343-.60672-2.09557-1.62592-4.75644-1.70391-5.94336-.17423-1.1869,1.52976-.45027,4.08788,1.6453,5.7138.27051.20991.55082.39165.83578.54984-.15427.08741-.31084.16392-.46132.26619-2.19389,1.49057-3.09036,3.9972-2.00224,5.59871Z"/><circle class="cls-4" cx="209.10432" cy="45.22603" r=".63298"/><path class="cls-4" d="m151.74282,37.26994c1.0139,1.64941,3.66759,1.86063,5.92721.47171.18254-.11217.34299-.24153.50879-.36672.00866.03871.00964.0765.01901.1153.62266,2.57817,2.65319,4.29978,4.53523,3.84525s2.90301-2.91312,2.28035-5.49129c-.05673-.23491-.13718-.45395-.21615-.6737.01459.00124.02779.00533.04245.00647,2.64445.20453,4.90924-1.19456,5.05857-3.12499.14645-1.89318-1.80054-3.58525-4.36995-3.84307.03336-.07311.07564-.13764.1067-.21279,1.0117-2.45176.38092-5.0381-1.40888-5.77656-1.78982-.73854-4.06088.65037-5.07256,3.10221-.12529.30364-.22477.60945-.30058.91353-.19682-.22134-.40927-.43605-.64504-.63682-2.01919-1.71985-4.67374-1.91917-5.92922-.44524-1.25546,1.47401-.63632,4.06307,1.38287,5.78292.26065.22204.53238.41637.80982.58741-.1581.08028-.31799.14956-.47299.24486-2.25962,1.38891-3.26954,3.85202-2.25562,5.50151Z"/><circle class="cls-1" cx="160.65325" cy="31.69052" r=".63298"/><path class="cls-4" d="m185.62727,49.13123c1.43954,1.2947,4.0444.74566,5.8181-1.22638.14329-.15928.26054-.32879.38409-.49581.01926.03467.03091.07064.05089.10519,1.32738,2.29624,3.76238,3.37225,5.43861,2.40327,1.67624-.96897,1.95905-3.61606.63167-5.9123-.12094-.20922-.26014-.39651-.39811-.58489.01435-.00294.02816-.00276.04254-.00582,2.5941-.55284,4.36988-2.5361,3.96633-4.42977-.39575-1.85714-2.74227-2.92847-5.27948-2.44799.01129-.07957.03356-.15342.04206-.23429.27586-2.63791-1.06162-4.93969-2.98729-5.14098-1.92571-.20136-3.71038,1.7739-3.9862,4.41188-.03416.3267-.04295.64816-.02953.96126-.25145-.15654-.51602-.30228-.79899-.42805-2.42363-1.07753-5.02592-.51683-5.81253,1.25233-.78657,1.76924.54052,4.07692,2.96415,5.15445.31287.13912.62851.24854.94303.33399-.12889.12177-.26261.2335-.38427.3688-1.77371,1.97204-2.04464,4.62032-.60505,5.9151Z"/><circle class="cls-1" cx="192.59257" cy="41.25657" r=".63298"/><path class="cls-4" d="m73.50115,66.99301l30.55776,16.71536,39.17662,8.61886,50.40725-13.84241,18.5436-14.10358.38385,2.61177h0v30.29659s-33.4227,29.42002-69.53054,29.42002-69.53855-29.42002-69.53855-29.42002v-30.29659h0"/><path class="cls-6" d="m213.87612,61.2471l2.3506,1.82824s-32.37809,35.52014-73.18707,35.52014-73.19498-35.52014-73.19498-35.52014l2.3506-1.82824s26.77069,26.11775,70.97498,26.11775,70.70588-26.11775,70.70588-26.11775Z"/><line class="cls-7" x1="79.76941" y1="69.99655" x2="79.76941" y2="97.55077"/><line class="cls-7" x1="87.08238" y1="76.00363" x2="87.08238" y2="102.77432"/><line class="cls-7" x1="93.7424" y1="79.92129" x2="93.7424" y2="106.16963"/><line class="cls-7" x1="100.53301" y1="85.14484" x2="100.53301" y2="109.17317"/><line class="cls-7" x1="206.30989" y1="69.99655" x2="206.30989" y2="97.55077"/><line class="cls-7" x1="198.99692" y1="76.00363" x2="198.99692" y2="102.77432"/><line class="cls-7" x1="192.33689" y1="79.92129" x2="192.33689" y2="106.16963"/><line class="cls-7" x1="185.54628" y1="85.14484" x2="185.54628" y2="109.17317"/><polyline class="cls-4" points="60.32895 70.35567 56.8598 91.31516 60.77746 90.82545 61.48716 70.35567"/><polyline class="cls-4" points="64.55599 70.45361 68.02514 91.4131 64.10748 90.92339 63.39778 70.45361"/><path class="cls-6" d="m233.31783,96.76724l-.01207-.08693c-.00783-.16937-.02968-.33409-.06838-.49347l-4.04697-29.19314-10.0068-.82133-5.44235,29.81525c-.07757.2345-.12771.48064-.13499.7394l-.00733.04023h.0033c-.00013.01114-.0033.02147-.0033.03265,0,1.43578,1.16393,2.59976,2.59976,2.59976,1.1058,0,2.04413-.69329,2.41992-1.66659.37576.97331,1.31404,1.66659,2.41988,1.66659s2.04408-.69329,2.41988-1.66655c.3758.97326,1.31408,1.66655,2.41988,1.66655s2.04417-.69329,2.41992-1.66659c.37576.97331,1.31404,1.66659,2.41988,1.66659,1.43582,0,2.59976-1.16398,2.59976-2.59976,0-.01118-.00318-.02151-.0033-.03265h.0033Z"/><path class="cls-6" d="m236.45196,56.35003c0,4.84106-3.01053,8.97897-7.26154,10.6437-1.29051.50537-2.69534.78282-4.16497.78282-2.13456,0-4.13242-.5853-5.84184-1.60417-3.34436-1.99334-5.58468-5.64622-5.58468-9.82235,0-6.31069,5.11582-11.42651,11.42651-11.42651s11.42651,5.11582,11.42651,11.42651Z"/><ellipse class="cls-6" cx="218.26752" cy="41.77945" rx="5.77127" ry="7.24158" transform="translate(-.7326 79.53102) rotate(-20.61675)"/><ellipse class="cls-6" cx="231.45698" cy="42.3018" rx="7.24158" ry="5.77127" transform="translate(138.88356 258.61625) rotate(-77.18837)"/><polyline class="cls-4" points="221.9325 70.35567 218.46336 91.31516 222.38102 90.82545 223.09071 70.35567"/><polyline class="cls-4" points="226.15955 70.45361 229.62869 91.4131 225.71103 90.92339 225.00134 70.45361"/></g></g></svg>