<?xml version="1.0" encoding="UTF-8"?><svg xmlns="http://www.w3.org/2000/svg" viewBox="0 0 288 83.5763"><defs><style>.cls-1,.cls-2{mix-blend-mode:multiply;}.cls-1,.cls-2,.cls-3{stroke-width:0px;}.cls-1,.cls-3{fill:#f5989e;}.cls-2{fill:#399a75;}.cls-4{isolation:isolate;}.cls-5{fill:none;stroke:#f5989e;stroke-miterlimit:10;stroke-width:.68535px;}</style></defs><g class="cls-4"><g id="Layer_1"><path class="cls-3" d="m145.70979,56.39825c25.15647,0,57.47241-10.2561,57.47241-10.2561l.38702,10.06259s1.16107,4.83778,15.67441,4.83778c14.51335,0,16.25495-10.64312,16.25495-10.64312l.77405-22.44731s-5.2248-5.41832-19.93166-5.41832-43.54004,12.57823-71.21215,12.57823h-2.25763c-27.67211,0-56.5053-12.57823-71.21215-12.57823s-19.93166,5.41832-19.93166,5.41832l.77405,22.44731s1.7416,10.64312,16.25495,10.64312,15.67441-4.83778,15.67441-4.83778l.38702-10.06259s32.31595,10.2561,57.47241,10.2561h3.41958Z"/><path class="cls-2" d="m84.8178,46.14216l-.38702,10.06259s-1.16107,4.83778-15.67441,4.83778-16.25495-10.64312-16.25495-10.64312c0,0,7.80496-6.70839,16.96449-6.70839s15.3519,2.45114,15.3519,2.45114Z"/><path class="cls-1" d="m84.8178,46.14216l-.38702,10.06259s-4.14472-6.3646-11.69166-6.3646c-6.96641,0-7.17569,2.49437-7.17569,2.49437,0,0-.09676-2.12862.40221-8.33096,1.13418-.19844,2.30571-.31254,3.50027-.31254,9.15953,0,15.3519,2.45114,15.3519,2.45114Z"/><path class="cls-1" d="m75.64636,50.90377l-.35454,4.2545s-2.17809.33499-5.53085,0c-4.53619-.45324-3.89996-2.48179-3.89996-2.48179,0,0,.86395-2.07385,4.82176-2.26907,3.10488-.15314,4.96358.49636,4.96358.49636Z"/><path class="cls-5" d="m52.50141,45.1746v5.2248s1.59647,10.64312,16.25495,10.64312,15.4809-3.98311,15.4809-4.88616c0-1.53196-5.22473-6.07948-12.22346-6.07948-4.39432,0-6.15279,1.34177-6.15279,2.59959,0,1.25782,1.54077,2.48179,9.4308,2.48179"/><path class="cls-2" d="m203.1822,46.14216l.38702,10.06259s1.16107,4.83778,15.67441,4.83778c14.51335,0,16.25495-10.64312,16.25495-10.64312,0,0-7.80496-6.70839-16.96449-6.70839s-15.3519,2.45114-15.3519,2.45114Z"/><path class="cls-1" d="m203.1822,46.14216l.38702,10.06259s4.14472-6.3646,11.69166-6.3646c6.96641,0,7.17569,2.49437,7.17569,2.49437,0,0,.09676-2.12862-.40221-8.33096-1.13418-.19844-2.30571-.31254-3.50027-.31254-9.15953,0-15.3519,2.45114-15.3519,2.45114Z"/><path class="cls-1" d="m212.35364,50.90377l.35454,4.2545s2.17809.33499,5.53085,0c4.53619-.45324,3.89996-2.48179,3.89996-2.48179,0,0-.86395-2.07385-4.82176-2.26907-3.10488-.15314-4.96358.49636-4.96358.49636Z"/><path class="cls-5" d="m235.49859,45.1746v5.2248s-1.59647,10.64312-16.25495,10.64312c-14.65848,0-15.4809-3.98311-15.4809-4.88616,0-1.53196,5.22473-6.07948,12.22346-6.07948,4.39432,0,6.15279,1.34177,6.15279,2.59959s-1.54077,2.48179-9.4308,2.48179"/></g></g></svg>