<?xml version="1.0" encoding="UTF-8"?><svg xmlns="http://www.w3.org/2000/svg" viewBox="0 0 288 121.97622"><defs><style>.cls-1{fill:#399a75;mix-blend-mode:multiply;}.cls-1,.cls-2{stroke-width:0px;}.cls-3{isolation:isolate;}.cls-2{fill:#f5989e;}</style></defs><g class="cls-3"><g id="Layer_1"><path class="cls-2" d="m206.09812,52.47904c-1.337,2.8077-2.2729,4.5458-2.2729,4.5458,0,0,2.0055,3.6099,11.8993,6.685-.9359,1.8718-1.8718,3.4762-1.8718,3.4762,0,0,9.4927,12.9689,25.80409,14.3059,9.86163.80833,15.6429,4.9469,15.6429,4.9469,0,0-5.6154,5.2143-9.359,9.0916-3.7436,3.8773.1337,7.6209.1337,7.6209l-4.4121,6.5513s8.08009,6.80297,10.696,2.9414c.56642-.83614,1.10018-1.63146,1.60213-2.38571,3.28939-4.94279,5.21205-8.12119,5.9997-9.45798.28372-.48154.42017-.72411.42017-.72411,0,0,2.1392.5348,4.2784-.5348,7.6209-9.359,11.2308-13.6374,11.2308-13.6374,0,0-4.9469-14.707-25.00189-18.45059-16.99311-3.17205-18.58429-10.9634-18.58429-10.9634l2.1392-3.4762c-2.674-3.6099-9.4927-6.9524-9.4927-6.9524,0,0,1.0696-1.7381,3.0751-4.8132-40.91219-24.60079-83.69618-24.06599-83.69618-24.06599h-.65747s-42.78399-.5348-83.69618,24.06599c2.0055,3.0751,3.0751,4.8132,3.0751,4.8132,0,0-6.8187,3.3425-9.4927,6.9524l2.1392,3.4762s-1.59118,7.79135-18.58429,10.9634c-20.05499,3.7436-25.00189,18.45059-25.00189,18.45059,0,0,3.6099,4.2784,11.2308,13.6374,2.1392,1.0696,4.2784.5348,4.2784.5348,0,0,.13645.24257.42017.72411.78765,1.33679,2.71031,4.51519,5.9997,9.45798.50194.75424,1.03571,1.54957,1.60213,2.38571,2.6159,3.86157,10.696-2.9414,10.696-2.9414l-4.4121-6.5513s3.8773-3.7436.1337-7.6209c-3.7436-3.8773-9.359-9.0916-9.359-9.0916,0,0,5.78127-4.13857,15.6429-4.9469,16.3114-1.337,25.80409-14.3059,25.80409-14.3059,0,0-.9359-1.6044-1.8718-3.4762,9.8938-3.0751,11.8993-6.685,11.8993-6.685,0,0-.9359-1.7381-2.2729-4.5458,28.21069-14.3059,43.48591-16.8462,62.12035-16.8462s33.8652,2.5403,62.07589,16.8462Z"/><path class="cls-1" d="m41.34066,94.84521c-2.62386-2.64057-8.64036-8.40639-8.64036-8.40639,0,0-8.2894,2.8077-8.99132,12.09985,2.1392,1.0696,4.86074.4722,6.25047.2674,4.76306-.70192,5.71567-4.31182,11.38121-3.96086Z"/><path class="cls-1" d="m34.33812,110.73879c-2.07235-2.74085-6.71842-10.66257-6.71842-10.66257,0,0,4.16141-.11699,7.55405-2.42331,3.14348-2.13695,5.94965-2.28961,6.8187-.35096s1.16987,3.76031-2.95811,7.01925c-4.03162,3.18286-4.89676,4.66279-4.69621,6.4176Z"/><path class="cls-1" d="m41.92559,103.15132l4.4121,6.5513s-8.22255,6.75185-10.696,2.9414,4.76306-7.7546,6.2839-9.4927Z"/><path class="cls-1" d="m72.27546,63.70981c-3.64371,1.57342-6.05149,4.03106-6.78137,4.84105l-9.51694-12.2786-.56115.4356,9.55968,12.33353.08046.07561c.05896.04023.91941.60971,2.23697.60971.88855,0,1.98484-.25873,3.18309-1.11467,2.48599-1.77779,3.44598-1.15143,3.44702-1.15074l.224-.27533.00004.00004-.00004-.00004-1.87177-3.47615Z"/><path class="cls-1" d="m81.90186,52.47903l-8.63901,4.31948c-.75186.20037-1.33742.37833-1.65324.47813l-8.27195-11.42348-.57502.41618,8.57576,11.84313.24659-.08185c2.752-.91282,10.26652-2.67791,12.0717-.4125l.57847-.54749c-.42806-.83129-1.11814-2.03981-2.3333-4.59161Zm2.00144,4.25541c.04066.03347.08211.06646.11766.103-.0372-.03611-.07816-.06893-.11766-.103Z"/><path class="cls-1" d="m246.65934,94.84521c2.62386-2.64057,8.64036-8.40639,8.64036-8.40639,0,0,8.2894,2.8077,8.99132,12.09985-2.1392,1.0696-4.86074.4722-6.25047.2674-4.76306-.70192-5.71567-4.31182-11.38121-3.96086Z"/><path class="cls-1" d="m253.66188,110.73879c2.07235-2.74085,6.71842-10.66257,6.71842-10.66257,0,0-4.16141-.11699-7.55405-2.42331-3.14348-2.13695-5.94965-2.28961-6.8187-.35096-.86905,1.93865-1.16987,3.76031,2.95811,7.01925,4.03162,3.18286,4.89676,4.66279,4.69621,6.4176Z"/><path class="cls-1" d="m246.07441,103.15132l-4.4121,6.5513s8.22255,6.75185,10.696,2.9414c2.47345-3.81045-4.76306-7.7546-6.2839-9.4927Z"/><path class="cls-1" d="m215.72454,63.70981c3.64371,1.57342,6.05149,4.03106,6.78137,4.84105l9.51694-12.2786.56115.4356-9.55968,12.33353-.08046.07561c-.05896.04023-.91941.60971-2.23697.60971-.88855,0-1.98484-.25873-3.18309-1.11467-2.48599-1.77779-3.44598-1.15143-3.44702-1.15074l-.224-.27533-.00004.00004.00004-.00004,1.87177-3.47615Z"/><path class="cls-1" d="m203.76483,57.07064l.57847.54749c1.80519-2.26541,9.3197-.50033,12.0717.4125l.24659.08185,8.57576-11.84313-.57502-.41618-8.27195,11.42348c-.31582-.0998-.90138-.27776-1.65324-.47813l-8.63901-4.31948c-1.21516,2.5518-1.90524,3.76032-2.3333,4.59161Zm.2142-.23319c.03555-.03655.07699-.06954.11766-.103-.03949.03407-.08046.06689-.11766.103Z"/></g></g></svg>