<?xml version="1.0" encoding="UTF-8"?><svg xmlns="http://www.w3.org/2000/svg" viewBox="0 0 288 83.5763"><defs><style>.cls-1{fill:#399a75;mix-blend-mode:multiply;}.cls-1,.cls-2{stroke-width:0px;}.cls-3{isolation:isolate;}.cls-2{fill:#f5989e;}</style></defs><g class="cls-3"><g id="Layer_1"><path class="cls-2" d="m277.69385,41.19246c-19.2499,2.40625-15.08186-3.96566-28.47383-5.30487-12.03122-1.20311-15.64058,1.69551-15.64058,1.69551v-10.42704s-5.61458-5.21354-21.65619-5.61458c-15.98098-.39952-34.55429,9.54638-70.18204,10.01812-35.62775-.47173-54.2011-10.41763-70.18208-10.01812-16.04157.40104-21.65615,5.61458-21.65615,5.61458v10.42704s-3.60936-2.89862-15.64058-1.69551c-13.39198,1.33921-9.22394,7.71112-28.47388,5.30487,0,0,1.20315,6.01561,4.41147,8.8229,0,0-2.40625,4.81246-2.40625,12.03118,0,0,13.23433-8.02079,25.66659-8.42182,12.43226-.40104,23.66137,6.01561,31.6822,4.01039,8.02079-2.00522,9.42441-11.63015,8.62234-13.43485s-3.60936-2.80729-4.21091-5.41406c0,0,3.20832-.80207,11.22911,1.00263,7.94419,1.78741,32.80689,10.0612,60.55711,10.41408v.01296c.13411-.00095.26705-.00516.40104-.0065.13398.00134.26692.00555.40104.0065v-.01296c27.75017-.35288,52.61291-8.62667,60.55711-10.41408,8.02079-1.8047,11.22911-1.00263,11.22911-1.00263-.60155,2.60677-3.40884,3.60936-4.21091,5.41406-.80211,1.8047.60155,11.42963,8.62234,13.43485,8.02083,2.00522,19.24994-4.41143,31.6822-4.01039,12.43226.40104,25.66659,8.42182,25.66659,8.42182,0-7.21872-2.40625-12.03118-2.40625-12.03118,3.20832-2.80729,4.41143-8.8229,4.41143-8.8229Z"/><path class="cls-1" d="m65.1425,57.63512c8.02081-2.0052,9.42445-11.63017,8.62237-13.43485-.80208-1.80468-3.60936-2.80728-4.21092-5.41404,0,0-17.49589-.39762-17.71261,5.81508-.20052,5.74824,14.04511,3.32072,14.70481,8.22133.46788,3.47568-1.40364,4.81248-1.40364,4.81248Z"/><path class="cls-1" d="m218.3399,57.63512c-8.02081-2.0052-9.42445-11.63017-8.62237-13.43485s3.60936-2.80728,4.21092-5.41404c0,0,17.49589-.39762,17.71261,5.81508.20052,5.74824-14.04511,3.32072-14.70481,8.22133-.46788,3.47568,1.40364,4.81248,1.40364,4.81248Z"/></g></g></svg>