<?xml version="1.0" encoding="UTF-8"?><svg xmlns="http://www.w3.org/2000/svg" viewBox="0 0 288 83.5763"><defs><style>.cls-1{fill:#399a75;mix-blend-mode:multiply;}.cls-1,.cls-2{stroke-width:0px;}.cls-3{isolation:isolate;}.cls-2{fill:#f5989e;}</style></defs><g class="cls-3"><g id="Layer_1"><path class="cls-2" d="m143.6597,30.16891c-26.31983,0-42.36851,11.68344-42.36851,11.68344,7.18981,11.94022,6.0343,17.84613,6.0343,17.84613,0,0-.89873,13.48089-14.12284,11.55505-13.22411-1.92584-22.08298,5.26397-22.08298,5.26397,0,0,2.05423-7.3182,7.83176-11.42666,5.77752-4.10846,10.78471-.25678,16.17707.89873,5.39236,1.1555,8.4717-4.49363,7.57498-13.99445-.33866-3.58812-3.85168-3.98007-5.26397-4.8788s-2.05423-2.31101-2.05423-2.31101l-8.08853-14.37962c8.73048-17.46096,38.00327-22.85332,56.49135-23.36688h.42383c18.48808.51356,47.76087,5.90591,56.49135,23.36688l-8.08853,14.37962s-.64195,1.41228-2.05423,2.31101-4.6512,1.32721-5.26397,4.8788c-1.19617,6.93303,2.18262,15.14995,7.57498,13.99445,5.39236-1.1555,10.39954-5.00719,16.17707-.89873s7.83176,11.42666,7.83176,11.42666c0,0-8.85887-7.18981-22.08298-5.26397s-14.12284-11.55505-14.12284-11.55505c0,0-1.1555-5.90591,6.0343-17.84613,0,0-16.04868-11.68344-42.36851-11.68344h-.68061Z"/><path class="cls-1" d="m106.66548,54.09749c-.62463-2.78928-1.87653-6.43634-5.3743-12.24514,0,0-3.39937,1.82023-2.32907,4.10846.87265,1.86566,2.69618,2.74432,4.62202,4.18871,1.25909.94432,2.07028,1.97399,3.08135,3.94798Z"/><path class="cls-1" d="m181.29201,54.09749c.62463-2.78928,1.87653-6.43634,5.3743-12.24514,0,0,3.39937,1.82023,2.32907,4.10846-.87265,1.86566-2.69618,2.74432-4.62202,4.18871-1.25909.94432-2.07028,1.97399-3.08135,3.94798Z"/></g></g></svg>