<?xml version="1.0" encoding="UTF-8"?><svg id="Layer_1" xmlns="http://www.w3.org/2000/svg" viewBox="0 0 97.41157 102.5235"><defs><style>.cls-1{fill:#f5989e;}.cls-1,.cls-2,.cls-3{stroke-width:0px;}.cls-2{fill:#f7e288;}.cls-3{fill:#399a75;}</style></defs><path class="cls-1" d="m48.38193,59.94402l-9.18096-6.90577c-.14585-.1094-.30631-.18231-.48132-.22606-1.25425-.78028-4.48473-4.22226-3.48569-18.57347,0,0-.20421-3.29613,3.09192-1.2397,3.29608,2.05643,12.55729,9.05705,12.55729,9.05705,0,0-5.20666,6.74536-2.50125,17.88794Z"/><path class="cls-2" d="m74.7727,66.76958c-.82403,1.85227-1.64806,1.2324-2.88776.82403l-23.50301-7.6496c-2.70541-11.14258,2.50125-17.88794,2.50125-17.88794,0,0,3.09192-5.14109,4.94419-6.38075,0,0,.82403-1.64806,2.67626.20416,1.85222,1.85952-.61983,2.67626,2.67626,5.14835,3.29613,2.47209,7.62044,2.88776,5.55672,7.41624-2.05638,4.52852-3.70445,3.29613-3.08462,4.93689.61987,1.64806,2.88046-2.67626,6.17659.41567,3.29608,3.08462,5.76088,11.12073,4.94414,12.97295Z"/><path class="cls-3" d="m58.72238,67.73217l-10.34045-7.78815-9.18096-6.90577s-.18961-.0365-.48132-.22606c-.10936-.0292-.22606-.04375-.33542-.04375-.29879,0-.59561.09787-.84019.28352l-11.22644-13.21895-.55618.47215,9.69147,11.41128-12.58132-7.97451-.39025.616,14.62881,9.27211c-.22107.5617-.06187,1.22621.44277,1.6032l19.52141,14.69392c.60527.45212,1.46576.32816,1.92517-.26981.45212-.60527.32816-1.47306-.27711-1.92517Z"/></svg>