<?xml version="1.0" encoding="UTF-8"?><svg id="Layer_1" xmlns="http://www.w3.org/2000/svg" viewBox="0 0 97.41157 102.5235"><defs><style>.cls-1{fill:none;stroke:#3b7e91;stroke-miterlimit:10;stroke-width:.73427px;}.cls-2{fill:#f5989e;}.cls-2,.cls-3{stroke-width:0px;}.cls-3{fill:#399a75;}</style></defs><path class="cls-3" d="m68.72273,55.47734c-11.0573-6.91079-15.20377-1.79683-15.20377-1.79683,0,0-1.84384,4.14288-1.42758,7.74962l-9.62967,11.18597,2.62611-17.69162-17.69167-.41464-5.94325-4.28473s-3.04075,2.07326,3.59361,11.47195c6.63436,9.39869,9.95155,7.18722,12.99226,10.64262,3.04075,3.4554-3.4554,8.84583-3.4554,8.84583l2.62611,1.935,16.35354-18.27088c.78523.8188,1.92688,1.42741,3.54956,1.68497,8.70762,1.38219,13.54516,1.10576,18.93559,5.11401,0,0,3.73182-9.26048-7.32543-16.17127Z"/><path class="cls-1" d="m73.14561,65.98175s-4.97577-6.0815-12.85408-9.81333"/><path class="cls-2" d="m25.73757,47.59904l-.8293-11.47192,7.87831-7.87831,4.28469,2.07324-1.38216-6.0815,6.49615-4.83756,3.04075,2.90253,4.56112.41465s1.52037-2.90253,5.2522-2.48789,6.91079,6.77258,6.91079,6.77258c0,0,2.90253-1.52037,4.83756,1.38216,1.93502,2.90253,0,4.28469,2.6261,5.52864,2.6261,1.24394,2.6261-.13822,4.56112,1.38216s-.27643,3.59361-.27643,3.59361l-7.46366,7.32544s1.93502.41465,2.34967,2.07324c.41465,1.65859-1.93502,9.39868-4.69934,10.36619-2.76432.96751-3.17897-1.24394-5.94328-.69108-2.76432.55286-3.04075,1.24394-5.66685.96751-2.6261-.27643-2.90253-2.48789-2.90253-2.48789,0,0-1.10573,3.4554-4.83756,3.87004-3.73183.41465-4.69934-1.52037-4.69934-1.52037,0,0-2.48789,3.31718-6.0815,1.93502s-2.90253-3.59361-2.90253-3.59361c0,0-3.73183.27643-3.59361-3.59361s3.17897-3.73183,3.17897-3.73183l-4.69934-2.21145Z"/><path class="cls-1" d="m66.23482,46.21688l-7.32544,6.63436s-2.71295-1.56269-4.97577-.51831c-2.69521,1.24394-4.66479,1.14028-5.90873-.10366-.60599-.60599-1.31038-1.53179-2.32889-2.32199-1.07224-.83189-2.49261-1.5135-4.51279-1.5135-3.93915,0-3.83549,1.76225-5.80507.31099s-.41465-2.59155.31099-3.21352c.43545-.37324,3.82003-1.82908,6.45737-2.93377,1.7575-.73615,3.18318-1.31637,3.18318-1.31637"/><path class="cls-1" d="m45.69598,49.90728s8.54861-3.06843,8.8596-4.41603-.10366-2.28056-1.76225-3.52451c-1.65859-1.24394-3.52451-2.38422-3.52451-2.38422"/><ellipse class="cls-1" cx="47.14375" cy="40.15266" rx="2.43605" ry="1.39944" transform="translate(-8.65846 13.3034) rotate(-14.72672)"/><path class="cls-1" d="m37.07127,30.32205s-6.9799,1.79681-7.08356,3.87004c-.10366,2.07324,3.0062,8.60394,4.56112,8.29295s3.62817-2.28056,4.87211-1.96958,2.72554,2.04201,2.72554,2.04201"/><path class="cls-1" d="m40.37314,34.72449c.01769.04144.08387.03291.08521-.01213.01857-.62301.19795-2.47512,1.6578-2.90449,1.4748-.43377,2.29618.51191,2.5249.83196.0226.03162.06955.01852.0725-.02023.03003-.39521.21404-1.65577,1.34175-2.263,1.19538-.64367,2.39077.26242,2.64557.47533.02458.02054.05673.00983.06288-.02161.09709-.49665.63842-3.69953-1.4645-4.08188-2.28056-.41465-2.79887-2.1769-4.97577-1.45127-2.14805.71602-3.99331,4.66189-1.95033,9.44732Z"/><path class="cls-1" d="m47.29924,26.72844s2.48789-3.10986,6.32338-2.38422c3.83549.72563,4.3538,2.69521,6.42704,4.66479,2.07324,1.96958,2.28056,2.28056,1.86591,4.04281-.41465,1.76225-3.93915,10.46985-3.93915,10.46985"/><path class="cls-1" d="m49.49978,39.53339s4.2265-7.31087,2.98256-10.00608c0,0,2.28056-.8293,4.14648-.10366s1.3476,6.21971.8293,8.60394c-.51831,2.38422-4.66479,3.93915-4.66479,3.93915"/><path class="cls-1" d="m52.48234,29.52731s-1.63212-2.09877-3.7186,1.28301"/></svg>