<?xml version="1.0" encoding="UTF-8"?><svg id="Layer_1" xmlns="http://www.w3.org/2000/svg" viewBox="0 0 97.41157 102.5235"><defs><style>.cls-1{stroke:#399a75;}.cls-1,.cls-2{fill:none;stroke-miterlimit:10;stroke-width:.70337px;}.cls-2{stroke:#3b7e91;}.cls-3{fill:#f5989e;}.cls-3,.cls-4,.cls-5,.cls-6,.cls-7{stroke-width:0px;}.cls-4{fill:#f7e288;}.cls-5{fill:#399a75;}.cls-6{fill:#3b7e91;}.cls-7{fill:#fff;}</style></defs><path class="cls-6" d="m80.89017,48.63593c.68444-.53049,1.14156-1.34299,1.16316-2.27617.02529-1.09112-.54595-2.04885-1.40911-2.5878.32099-.46279.51701-1.02003.53105-1.62522.02516-1.08562-.54002-2.03971-1.39593-2.58025.34297-.47262.55294-1.04883.5675-1.67682.02782-1.20081-.66289-2.24573-1.67566-2.74064.22465-.40681.3686-.86496.38015-1.36175.02851-1.23193-.69522-2.30614-1.7513-2.78395.21092-.39685.34538-.84084.35649-1.32071.0337-1.4541-.98165-2.68504-2.35375-2.97817.08754-.26926.15099-.54955.1579-.84715.03495-1.50978-1.06399-2.76991-2.51602-2.9983.06581-.23487.11338-.47726.11926-.73226.03662-1.58083-1.16908-2.88982-2.72291-3.02402.00249-.04001.01369-.07736.0146-.11784.03812-1.64479-1.26439-3.00908-2.90918-3.0472-.1078-.00249-.21032.01571-.31541.02443-.05195-1.5676-1.30852-2.8432-2.89617-2.87995-.22796-.00528-.44841.02048-.6628.06401-.25256-1.35574-1.4246-2.39685-2.85818-2.43008-.35649-.00824-.69543.05693-1.01496.16451-.41333-1.10795-1.46384-1.91049-2.71827-1.93955-.56449-.01309-1.09043.14077-1.54653.40312-.50353-.86745-1.42452-1.46522-2.50065-1.49012-.82508-.0191-1.57907.29961-2.13098.82916-.99891-1.14663-2.71599-1.37656-3.97484-.47052-.14154.10187-.26518.21864-.38324.33906-.53397-.44463-1.21699-.71505-1.96621-.69771-1.07618.0249-1.99717.62266-2.50065,1.49012-.45614-.26235-.98208-.41621-1.54653-.40312-1.25443.02906-2.30498.83161-2.71831,1.93955-.31953-.10758-.65842-.17275-1.01496-.16451-1.43358.03323-2.60562,1.07433-2.85818,2.43008-.21439-.04353-.43484-.06929-.66276-.06401-1.58765.03675-2.84423,1.31234-2.89622,2.87995-.10505-.00871-.20761-.02692-.31541-.02443-1.64479.03812-2.9473,1.40241-2.90918,3.0472.00094.04048.01211.07783.01464.11784-1.55387.1342-2.75957,1.44319-2.72295,3.02402.00592.25501.05349.49739.11926.73226-1.45204.22839-2.55097,1.48853-2.51598,2.9983.00691.29759.07032.57789.15786.84715-1.37206.29313-2.38745,1.52407-2.35375,2.97817.01112.47988.14558.92386.35654,1.32071-1.05613.47782-1.77985,1.55202-1.7513,2.78395.01151.49679.15545.95494.38011,1.36175-1.01273.4949-1.70348,1.53983-1.67566,2.74064.01455.62799.22453,1.2042.5675,1.67682-.85586.54054-1.42104,1.49462-1.39588,2.58025.014.60519.21002,1.16243.53105,1.62522-.8632.53895-1.43443,1.49668-1.40915,2.5878.02164.93318.47872,1.74568,1.1632,2.27617-.56574.55664-.91407,1.33119-.89424,2.18726.01885.8125.36306,1.53979.90313,2.06491-.51517.54955-.82534,1.29203-.80653,2.10454.01992.85904.40668,1.61861,1.00114,2.14867-.36667.50812-.58531,1.12877-.56969,1.80351.02413,1.04158.58188,1.94295,1.40413,2.45652-.33503.49469-.52963,1.09095-.51474,1.73375.02447,1.05648.59948,1.96596,1.44105,2.47545-.24792.44699-.39466.95735-.38195,1.50527.02782,1.20089.76627,2.21276,1.80097,2.66018-.13673.27785-.2441.57441-.28918.89789-.21302,1.52953.78202,2.9352,2.25179,3.29135-.08041.20894-.14429.42673-.17649.65804-.22229,1.59633.86775,3.06528,2.44403,3.33814-.02821.10943-.06435.2153-.08037.32992-.22693,1.62947.91008,3.13444,2.53959,3.36141.15103.02099.29918.01863.44716.01696-.01545.07178-.04151.13884-.05182.21276-.22693,1.62951.91008,3.13448,2.53959,3.36145.21388.02975.42493.03336.63189.01812-.13819,1.56997.96666,2.99096,2.54535,3.21085.36006.05014.71106.0237,1.04652-.04993.15202,1.31625,1.1647,2.41819,2.53805,2.60948.3692.05143.72952.0243,1.07253-.05418.34593,1.04175,1.24593,1.85661,2.40668,2.01829.60695.08453,1.19608-.02121,1.7088-.27003.37727.97662,1.24636,1.73044,2.35679,1.88503.93919.13081,1.82832-.20117,2.46391-.80971.9935,1.18046,2.73566,1.42482,4.00854.50864.25805-.18572.46507-.41243.64439-.65512.63958.70827,1.6071,1.09777,2.62348.95619,1.11048-.15459,1.97957-.90841,2.35679-1.88503.51276.24882,1.1019.35456,1.7088.27003,1.16075-.16168,2.06079-.97654,2.40672-2.01829.34301.07848.70329.10561,1.07249.05418,1.37334-.1913,2.38603-1.29324,2.53805-2.60948.3355.07363.68646.10007,1.04656.04993,1.57864-.21989,2.68354-1.64089,2.5453-3.21085.20697.01524.41801.01163.63194-.01812,1.62947-.22697,2.76648-1.73194,2.53955-3.36145-.0103-.07393-.03636-.14098-.05177-.21276.14798.00167.29609.00404.44716-.01696,1.62947-.22697,2.76648-1.73194,2.53955-3.36141-.01597-.11462-.05212-.22049-.08037-.32992,1.57632-.27287,2.66637-1.74182,2.44407-3.33814-.03224-.23131-.09612-.4491-.17649-.65804,1.46972-.35615,2.46481-1.76182,2.25179-3.29135-.04508-.32348-.15249-.62004-.28922-.89789,1.03471-.44742,1.7732-1.45929,1.80102-2.66018.01266-.54792-.13403-1.05828-.38199-1.50527.84161-.5095,1.41662-1.41898,1.44109-2.47545.0149-.6428-.17975-1.23906-.51478-1.73375.82225-.51358,1.38-1.41494,1.40413-2.45652.01563-.67474-.20298-1.29538-.56964-1.80351.59441-.53006.98122-1.28963,1.00109-2.14867.01885-.8125-.29137-1.55498-.80649-2.10454.54002-.52513.88428-1.25241.90308-2.06491.01983-.85608-.3285-1.63063-.8942-2.18726Z"/><ellipse class="cls-7" cx="48.74551" cy="51.00506" rx="27.76892" ry="37.78084"/><path class="cls-1" d="m48.99232,34.16608s.1986-6.42046,4.43537-6.42046,4.30297,4.17057,4.30297,4.17057"/><path class="cls-5" d="m32.57482,30.52601s12.97512,5.29597,11.65113,12.97512l4.76637-6.22347s-5.03117-7.94324-16.4175-6.75165Z"/><path class="cls-5" d="m58.54161,60.16688c3.87268,9.73134-1.63844,14.34876-1.63844,14.34876.7944-4.07128-1.39019-8.9866-1.39019-8.9866-.54615,9.23484-5.95796,11.66768-5.95796,11.66768,0,0,.44685-1.04264,1.19159-7.00061s-2.58178-9.78099-2.58178-9.78099c1.48949,9.23484-3.87268,12.31313-3.87268,12.31313l-1.88669-6.85166-3.67408,5.85866-.1986-8.63905-7.94395,6.45446,4.26987-14.29911,16.252-5.26287,7.43091,10.17819Z"/><path class="cls-4" d="m70.0316,52.15348c-.55848-.55848-1.17123-1.01535-1.80926-1.37875l2.07594-1.35763c1.02149-.66804,1.31067-2.05044.64263-3.07197l-2.43544-3.72396c-.66808-1.02153-2.05049-1.31071-3.07197-.64263l-2.90699,1.90117c-1.17685-2.0349-3.30521-3.08107-5.07549-2.3692-1.99438.80203-2.77618,3.52854-1.74615,6.08985.18726.46571.42265.89261.69264,1.27671-1.18046-.16515-2.40814.03593-3.50398.6686-2.69006,1.55309-3.56181,5.07936-1.94707,7.8761,1.6147,2.79679,5.10439,3.80497,7.79445,2.25187.74184-.42832,1.33969-1.01015,1.79097-1.68189.38466.74866.89836,1.46826,1.5458,2.11565,2.7305,2.73055,6.72458,3.1635,8.92099.96709,2.19645-2.19641,1.76345-6.19048-.96705-8.92103Z"/><ellipse class="cls-6" cx="47.40353" cy="41.11795" rx="7.94395" ry="5.16357" transform="translate(-.76512 81.33686) rotate(-80.799)"/><path class="cls-3" d="m48.81028,45.61953c-.7442,0-1.44615.15227-2.07534.41638,1.02999-3.04553-.92987-6.59068-4.51087-8.03095-2.94022-1.1826-6.07509-.58385-7.86035,1.27778-.81448-.50907-1.76182-.80658-2.77726-.80658-3.01625,0-5.46144,2.57857-5.46144,5.75938,0,2.86183,1.98141,5.22936,4.57518,5.67682-.08642.04448-.17404.08436-.25917.13351-2.7038,1.56104-3.69361,4.90862-2.21075,7.47702,1.48286,2.5684,4.87685,3.38498,7.5807,1.82394.85573-.49409,1.53841-1.16779,2.02675-1.93844.98298,1.71155,2.48503,2.80812,4.17052,2.80812,2.67671,0,4.88883-2.7633,5.29075-6.37169.47571.13781.98285.21512,1.51128.21512,2.6598,0,4.81602-1.88945,4.81602-4.22023s-2.15622-4.22019-4.81602-4.22019Z"/><circle class="cls-7" cx="61.30545" cy="51.57748" r="1.45639"/><ellipse class="cls-6" cx="39.45958" cy="48.433" rx="2.35215" ry="1.51147" transform="translate(-18.92992 26.21858) rotate(-30)"/><path class="cls-2" d="m40.12157,42.83914s-6.28896-1.12539-6.95096,2.97898c-.826,5.1212,5.36217,5.56077,5.36217,5.56077"/><path class="cls-6" d="m65.60183,36.04299c-.14622-.65344-1.32883-.94507-2.64138-.65134-.63365.14184-1.17784.39526-1.55889.69187-.02022-.00884-.03971-.01649-.05976-.02486.04589-.59579-.01146-1.2531-.20684-1.92509-.57411-1.9748-2.04276-3.28401-3.28027-2.92425-1.23756.35976-1.77535,2.25235-1.20124,4.2271.24067.82783.64288,1.52691,1.11499,2.04692-.16125.52139-.28356,1.11684-.33718,1.76646-.16919,2.04963.35881,3.76603,1.17926,3.83373.82049.0677,1.62268-1.53893,1.79187-3.58851.02812-.34048.03052-.66594.02198-.98199.27583.40385.61275.81787,1.0132,1.21832,1.45418,1.45423,3.10499,2.16116,3.68708,1.57907.5696-.5696-.1002-2.16142-1.49136-3.59208,1.23524-.31627,2.10926-1.0466,1.96853-1.67536Z"/><path class="cls-2" d="m28.23029,57.52289s-2.78088-4.80719,2.46992-7.61054c0,0,2.17251-1.01596,3.26481-.81736"/></svg>