<?xml version="1.0" encoding="UTF-8"?><svg xmlns="http://www.w3.org/2000/svg" xmlns:xlink="http://www.w3.org/1999/xlink" viewBox="0 0 97.41157 102.5235"><defs><style>.cls-1{fill:#f5989e;mix-blend-mode:multiply;}.cls-1,.cls-2,.cls-3,.cls-4{stroke-width:0px;}.cls-5{letter-spacing:-.03999em;}.cls-6{clip-path:url(#clippath);}.cls-7{letter-spacing:-.01999em;}.cls-2{fill:none;}.cls-8{letter-spacing:-.12998em;}.cls-9{fill:#3b7e91;font-family:Odile-Regular, Odile;font-size:8.76759px;}.cls-10{letter-spacing:-.09em;}.cls-11{isolation:isolate;}.cls-3{fill:#f7e288;}.cls-4{fill:#fff;}</style><clipPath id="clippath"><polygon class="cls-2" points="80.06288 41.10774 52.87829 41.10774 79.64976 36.38717 79.52276 35.66795 52.75477 40.3879 78.29624 31.09151 78.04651 30.40511 52.50152 39.7028 76.0444 26.1105 75.67909 25.47834 52.13807 39.06956 72.96133 21.59685 72.49184 21.03746 51.66716 38.51137 69.14121 17.68682 68.58182 17.21733 51.10888 38.0405 64.70033 14.49958 64.06816 14.13426 50.4764 37.67523 59.77355 12.13144 59.08716 11.88172 49.79018 37.42501 54.51036 10.65591 53.79114 10.5289 49.07092 37.29832 49.07092 10.11578 48.34029 10.11578 48.34029 37.29832 43.62007 10.5289 42.90086 10.65591 47.62103 37.42501 38.32406 11.88172 37.63766 12.13144 46.93472 37.67501 33.34341 14.13426 32.71053 14.49958 46.30215 38.04032 28.8294 17.21733 28.27 17.68682 45.74405 38.51137 24.91937 21.03746 24.44988 21.59685 45.27234 39.06889 21.73248 25.47834 21.36717 26.1105 44.91063 39.70316 19.3647 30.40511 19.11498 31.09151 44.65644 40.3879 17.88845 35.66795 17.76145 36.38717 44.53292 41.10774 17.34868 41.10774 17.34868 41.83838 44.52886 41.83838 17.76145 46.55824 17.88845 47.27745 44.66023 42.55683 19.11498 51.85461 19.3647 52.54101 44.90729 43.24417 21.36717 56.8349 21.73248 57.46707 45.27506 43.87495 24.44988 61.34927 24.91937 61.90866 45.742 44.43644 28.27 65.25858 28.8294 65.72807 46.30215 44.90508 32.71053 68.44583 33.34341 68.81114 46.93472 45.2704 37.63766 70.81396 38.32406 71.06369 47.62125 45.51972 42.90086 72.29021 43.62007 72.41722 48.34029 45.6478 48.34029 72.82962 49.07092 72.82962 49.07092 45.6478 53.79114 72.41722 54.51036 72.29021 49.78996 45.51972 59.08716 71.06369 59.77355 70.81396 50.4764 45.27017 64.06816 68.81114 64.70033 68.44583 51.10888 44.9049 68.58182 65.72807 69.14121 65.25858 51.66921 44.43644 72.49184 61.90866 72.96133 61.34927 52.13535 43.87428 75.67909 57.46707 76.0444 56.8349 52.50486 43.24452 78.04651 52.54101 78.29624 51.85461 52.75098 42.55683 79.52276 47.27745 79.64976 46.55824 52.88235 41.83838 80.06288 41.83838 80.06288 41.10774"/></clipPath></defs><g class="cls-11"><g id="Layer_1"><path class="cls-3" d="m58.39901,64.20736c9.56293-3.83859,16.31888-13.19014,16.31888-24.12542,0-14.3557-11.63759-25.9933-25.9933-25.9933s-25.9933,11.63759-25.9933,25.9933c0,10.93528,6.75595,20.28683,16.31888,24.12542v8.73977h4.27053c-1.62372,1.19513-2.6497,2.91508-2.6497,4.83371,0,2.10195,1.22893,3.96693,3.13016,5.16188v3.49798h-7.91352v5.96703h25.67387v-5.96703h-7.91352v-3.49793c1.90128-1.19495,3.13021-3.05993,3.13021-5.16192,0-1.91862-1.02598-3.63858-2.6497-4.83371h4.27053v-8.73977Z"/><g class="cls-6"><circle class="cls-1" cx="48.70561" cy="40.08965" r="26.00101"/></g><circle class="cls-4" cx="48.63107" cy="40.08195" r="19.16981"/><text class="cls-9" transform="translate(46.92341 32.29552)"><tspan x="0" y="0">I</tspan><tspan class="cls-7" x="-7.44385" y="8.03711">L</tspan><tspan class="cls-5" x="-2.56006" y="8.03711">ov</tspan><tspan x="6.20801" y="8.03711">e </tspan><tspan class="cls-8" x="-6.62402" y="17.53516">Y</tspan><tspan class="cls-7" x="-1.6001" y="17.53516">o</tspan><tspan x="2.81885" y="17.53516">u</tspan><tspan class="cls-10" x="7.96533" y="17.53516">.</tspan></text></g></g></svg>