<?xml version="1.0" encoding="UTF-8"?><svg xmlns="http://www.w3.org/2000/svg" viewBox="0 0 97.41157 102.5235"><defs><style>.cls-1,.cls-2,.cls-3{mix-blend-mode:multiply;}.cls-1,.cls-2,.cls-4,.cls-5,.cls-6,.cls-7{stroke-width:0px;}.cls-1,.cls-4{fill:#f5989e;}.cls-2,.cls-7{fill:#3b7e91;}.cls-3{fill:none;stroke:#f5989e;stroke-miterlimit:10;stroke-width:1.16859px;}.cls-8{isolation:isolate;}.cls-5{fill:#f7e288;}.cls-6{fill:#399a75;}</style></defs><g class="cls-8"><g id="Layer_1"><path class="cls-6" d="m25.1265,72.48638s-2.66655-21.45643,8.46013-17.86201c11.12668,3.59441-8.46013,17.86201-8.46013,17.86201Z"/><line class="cls-3" x1="33.36223" y1="54.56144" x2="28.37951" y2="63.79237"/><path class="cls-6" d="m12.23203,46.24576s21.20677-4.21443,18.42814,7.14347c-2.77864,11.3579-18.42814-7.14347-18.42814-7.14347Z"/><line class="cls-3" x1="30.70667" y1="53.16086" x2="21.13892" y2="48.86019"/><path class="cls-6" d="m85.17954,74.56336s-21.54167-1.85606-15.71089-11.99138,15.71089,11.99138,15.71089,11.99138Z"/><line class="cls-3" x1="69.3604" y1="62.77838" x2="77.35261" y2="69.57265"/><path class="cls-5" d="m46.6701,64.90109c-.08352-.05275-.16987-.09141-.25517-.13602.15174-.09104.30052-.19476.44347-.31359,1.10742-.92046,1.46047-2.32196.78855-3.13037-.67193-.80837-2.11433-.71753-3.22175.20293-.12931.10745-.24605.22262-.35434.3415-.03917-.16557-.09117-.33224-.1572-.4979-.53318-1.33767-1.757-2.10652-2.73349-1.7173-.97647.38918-1.33582,1.78912-.80263,3.12675.01637.041.0389.07631.05653.11622-1.39656.12316-2.4646,1.02901-2.39748,2.05773.06844,1.04896,1.28879,1.82331,2.72574,1.72957.00796-.00052.01516-.00266.02309-.00323-.04431.11878-.08942.23717-.12175.36432-.35489,1.39556.18329,2.73694,1.20203,2.99601s2.13234-.66228,2.48722-2.05783c.00534-.021.00612-.04151.01107-.06247.08919.06905.17545.14032.27381.20241,1.21761.76879,2.65962.67148,3.22083-.21731.56122-.88884.02907-2.23261-1.18854-3.0014Z"/><circle class="cls-1" cx="43.05787" cy="64.81527" r=".34365"/><path class="cls-5" d="m60.35008,34.7737c-.06042-.07815-.12831-.14404-.19319-.21516.17373-.03359.34903-.08011.52403-.14282,1.35562-.48572,2.16713-1.68167,1.81257-2.67126-.35459-.98956-1.74093-1.398-3.09655-.91228-.15828.05669-.30739.12494-.44984.19955.01988-.16898.02808-.34338.02275-.52163-.04302-1.43937-.92968-2.58074-1.98041-2.54932-1.0507.03138-1.8676,1.22371-1.82455,2.66304.00134.04413.01042.08501.01333.12855-1.35433-.36239-2.66796.12309-2.95706,1.11263-.2948,1.00901.58672,2.15434,1.96893,2.5582.00766.00224.01515.00269.0228.00487-.0823.09643-.16521.19223-.23912.30063-.8112,1.18974-.76476,2.63431.10374,3.22648s2.23022.10773,3.04142-1.082c.01221-.0179.01996-.03691.03179-.0549.06016.09541.11681.19191.18797.28392.88085,1.13918,2.26904,1.54141,3.10061.89845.8316-.643.79164-2.08775-.08921-3.22693Z"/><circle class="cls-1" cx="56.9855" cy="33.45644" r=".34365"/><path class="cls-4" d="m49.71342,39.70938c.90904-2.83921.6054-5.63354-1.10433-7.52933-1.82777-2.02663-4.84313-2.55295-7.98292-1.72153-2.79739-1.56619-7.02066-.78652-10.26487,2.13932-3.49979,3.15643-4.63435,7.7036-2.83775,10.66231-.80632,1.05771-1.34566,2.48342-1.43696,4.08088-.12782,2.23633.65025,4.24143,1.91815,5.41036,1.50754,2.23185,4.58735,3.76508,8.15142,3.76508,2.12826,0,4.0817-.55018,5.63518-1.46493,1.32628-.66895,2.65146-1.56436,3.89276-2.68388,4.58584-4.13587,6.32475-9.7087,4.02931-12.65827Z"/><path class="cls-6" d="m67.35368,45.80467c-5.09635-2.5945-1.26888-11.10269-1.26888-11.10269l1.90332,1.69184s1.90332-4.44108,6.55588-5.39274c0,0,.84592,3.59516-.74018,7.19032l3.48942-.10574s-4.12386,10.67973-9.93955,7.71901Z"/><path class="cls-4" d="m77.31523,50.49586c-1.09345-3.58885-3.48571-6.22431-5.95766-6.90583-1.21058-.59027-2.61114-.94502-4.11192-.9756-1.50169-1.54749-3.77029-2.53375-6.30925-2.53375-3.70597,0-6.8331,2.10188-7.84198,4.98356-.44298-.13367-.9068-.21125-1.38795-.21125-2.91995,0-5.28702,2.62746-5.28702,5.86856,0,.89976.1878,1.74882.51384,2.51094-.75347.61189-1.2061,1.39609-1.2061,2.25109,0,1.86361,2.1513,3.38752,4.88075,3.5269-.56622,2.10714-.1392,4.25007,1.34109,5.62101,1.76917,1.63851,4.52203,1.69493,6.89225.36933,1.54996,1.63892,3.93317,2.69201,6.61138,2.69201,4.50269,0,8.17323-2.97069,8.43389-6.71469.10016-.0224.20128-.03698.30044-.0672,3.18464-.9703,4.5852-5.63331,3.12822-10.41509Z"/><path class="cls-2" d="m58.83898,65.00082c-1.60109,1.42314-5.12308,1.26918-6.89225-.36933-1.48029-1.37094-1.90732-3.51387-1.34109-5.62101-2.72945-.13938-4.88075-1.66329-4.88075-3.5269,0-.85501.45262-1.6392,1.2061-2.25109-.32604-.76211-.51384-1.61118-.51384-2.51094,0-3.24109,2.36707-5.86856,5.28702-5.86856.48115,0,.94497.07758,1.38795.21125,1.00888-2.88168,4.13601-4.98356,7.84198-4.98356,2.53896,0,4.80756.98625,6.30925,2.53375,0,0-9.69912,2.84571-10.83375,11.015-.5287,3.80664-.01762,7.15507,2.42939,11.37139Z"/><path class="cls-7" d="m67.52998,62.49844c-1.66804,0-2.0462-1.2866-2.61855-3.23405l-.20736-.69743c-.10789-.35584-.32512-.61514-.66488-.79324-1.16591-.61075-3.27867-.06546-3.81262.08741-.04425.01353-.08887.0267-.13458.04023l-.2198-.71608c.01536-.00475.07717-.0245.17628-.05303,2.21882-.68463,2.24917-1.46361,2.29416-2.62842.03547-.90954.079-2.04108,1.25698-3.21869,1.45922-1.45958,3.01499-.94758,4.38863-.49445,1.24564.41034,2.32158.76435,3.29513-.21065,2.10581-2.10544-.41648-7.17817-.44025-7.22498l.88117.33484c.10789.21102,2.5792,4.92989.08865,7.4197-1.30086,1.30086-2.7663.81738-4.05912.39242-1.33707-.44069-2.49128-.82141-3.62464.31269-.97025.97025-1.00463,1.85895-1.03791,2.71802-.02962.7596-.05925,1.53529-.74716,2.21735.71242-.02743,1.45446.05193,2.04181.35987.52005.27209.86822.68938,1.03499,1.23979l.20919.70364c.58844,2.00341.84591,2.69608,1.89991,2.69608v.74899Z"/><path class="cls-7" d="m74.52627,53.76529c-.9569-.55246-2.28826-.03794-2.97366,1.14923s-.46533,2.59743.49157,3.14989c.06985.04032.14519.06309.21861.09221-.30885.10176-.61884.1493-.9297.12727-1.83884-.13385-3.18468-2.38924-3.19821-2.41192l-.64623.37852c.06254.10679,1.55431,2.61562,3.78702,2.7802.0768.00549.1536.00841.2304.00841.88321,0,1.74142-.37669,2.56301-1.12312.368-.2347.70122-.57203.94877-1.00079.6854-1.18717.46533-2.59743-.49157-3.14989Z"/><path class="cls-7" d="m39.26725,35.47372c-.15214-.38135-.43548-.88339-.96993-1.28267-.74534-.55662-1.74302-.74607-2.96744-.5643-1.09094.16238-1.91454.61953-2.44812,1.35865-.87955,1.21821-.62648,2.74728-.61514,2.81165l.73802-.12727c-.00219-.0128-.20809-1.29245.48787-2.25064.41107-.5665,1.06644-.92015,1.94782-1.05144,1.07723-.15945,1.80057.03447,2.28561.34451-.50753.00901-1.0599.1659-1.57063.49509-1.1522.74268-1.64212,2.03381-1.09423,2.88374.54789.84998,1.92606.93693,3.07826.19424,1.12134-.7228,1.60738-1.96204,1.12792-2.81156Z"/><path class="cls-7" d="m42.30926,45.24637c-1.17798-1.21126-2.93855-1.8253-5.23234-1.8253-.35813,0-.70575.02615-1.04934.06085-.38291-.45555-1.73854-1.8509-4.19983-2.10339-2.90527-.2944-4.56151,1.12172-4.62881,1.20108l.32461.68054c.05705-.06693,1.72295-1.39339,4.22812-1.13629,1.70526.17491,2.81115.97903,3.36512,1.4968-5.46316,1.03947-8.67266,5.8004-8.82877,6.03917,0,0,.00249.07713.09952.39808.10046.3323.24305.66367.24305.66367.04059-.06144,4.23495-6.55152,10.44632-6.55152,2.07875,0,3.65573.53505,4.68742,1.59051,1.30671,1.3367,1.28258,3.08338,1.28221,3.10093l.74899.01975c.00219-.08338.03913-2.06631-1.48628-3.63488Z"/><path class="cls-7" d="m40.763,43.28758c-.14958-.7479-.0501-2.30659,1.39741-2.85553.95745-.36426,1.64464-.05047,2.14641.17811.4385.19822.6422.28014.91064.11666.30647-.18725.3862-.44069.50104-.87297.13056-.49153.29294-1.10374,1.04815-1.51554.56248-.30684,1.12349-.37815,1.66695-.21431.02706.00841.30115.11114.32749.12028-.90881-1.47421-2.89959-3.71457-5.95042-5.2707l.34012-.66707c5.36254,2.73485,6.49146,5.90253,6.79106,6.4841l-.22842.91879c-.00439-.00841-.64162-.7634-1.50073-.86931-.54426-.0671-.70364-.05413-1.08765.1558-.47214.25783-.56504.60746-.68243,1.05035-.12069.45313-.2571.96696-.83457,1.31988-.6177.37779-1.14543.13751-1.61099-.07424-.46629-.21248-.90589-.4118-1.57113-.15982-1.21272.46007-.94063,1.94672-.9282,2.00963l-.73473.14592Z"/></g></g></svg>