<?xml version="1.0" encoding="UTF-8"?><svg xmlns="http://www.w3.org/2000/svg" viewBox="0 0 97.41157 102.5235"><defs><style>.cls-1,.cls-2{mix-blend-mode:multiply;}.cls-2{fill:none;stroke:#3b7e91;stroke-miterlimit:10;stroke-width:.76214px;}.cls-3{isolation:isolate;}.cls-4{fill:#f7e288;}.cls-4,.cls-5{stroke-width:0px;}.cls-5{fill:#3b7e91;}</style></defs><g class="cls-3"><g id="Layer_1"><path class="cls-4" d="m86.19078,30.30967c-1.42214-1.65068-3.91315-1.83591-5.56378-.41373-.07945.06847-.13913.15002-.21179.22319.11234-1.04697-.18202-2.13469-.92356-2.99541-1.42214-1.65063-3.9131-1.83586-5.56378-.41368-.07513.06471-.13123.14206-.20026.21105.04726-.97445-.25617-1.96797-.94328-2.76542-1.42214-1.65063-3.91315-1.83586-5.56378-.41373-.07908.06815-.13848.14932-.21082.22217.01814-1.38897-.68083-2.74635-1.973-3.48305-1.76976-1.00901-3.97674-.48322-5.14015,1.13461-.32767-.75586-.8809-1.42069-1.6517-1.86014-1.76418-1.00585-3.96302-.48639-5.12931,1.11949-.326-.76596-.88202-1.44056-1.661-1.88466-1.89275-1.07916-4.30199-.41954-5.38111,1.47321-.04387.07699-.06731.15904-.10546.23761-.33279-.51788-.77619-.97398-1.34803-1.30003-1.8928-1.07911-4.30199-.41954-5.38115,1.47321-.24785.43471-.39345.89756-.46401,1.36436-.69116-.81629-1.69985-1.35869-2.85292-1.40213-2.17726-.08201-4.00874,1.61649-4.09076,3.79374-.00423.11206.01563.21835.02065.32837-.69111-.81536-1.69929-1.35696-2.85157-1.40041-2.17726-.08201-4.00874,1.61653-4.09076,3.79374-.00354.09364.01428.18216.01726.27445-.69102-.81169-1.69719-1.35027-2.84641-1.39357-2.17726-.08201-4.00874,1.61649-4.09076,3.79374-.02503.66478.13183,1.2883.40173,1.84865-.00861.00493-.0173.01019-.02591.01512-.65999-1.11772-1.85066-1.89085-3.24414-1.94332-2.17721-.08201-5.51898,2.60172-3.42044,6.12813-.03005.02065,31.18464,47.97646,31.18464,47.97646h12.62468s30.21672-47.30667,30.7009-48.4902,1.28868-3.73266-.02024-5.25183Z"/><line class="cls-2" x1="26.64895" y1="38.32187" x2="45.96989" y2="83.7648"/><line class="cls-2" x1="37.48034" y1="34.08974" x2="49.19779" y2="83.98"/><line class="cls-2" x1="72.34163" y1="38.93158" x2="52.35395" y2="83.7648"/><line class="cls-2" x1="61.47438" y1="34.30493" x2="49.12605" y2="83.98"/><g class="cls-1"><path class="cls-5" d="m25.60299,35.78033c.00452.00854.00684.01294.01135.02148.4939.13501,1.13391.51465,1.66858.82178.09143.05054.24536.12451.34546.07568.11768-.05762.17651-.08618.29456-.14307.04871.10132.073.15186.12158.25317-.35437.17041-.53101.25757-.88269.43579-.5481-.34546-1.38477-.85547-2.09045-1.05615-.19885.10767-.2981.16235-.49597.27246.21045.37793.3158.56689.52612.94482.26196.47021.33423.43652.44397.37598.13403-.07373.20117-.1106.33569-.18335.05347.09888.0802.14819.13367.24707-.63843.34546-.9552.52466-1.58325.89624-.05725-.09692-.08582-.14502-.14294-.24194.20288-.11987.30469-.1792.50867-.29663-.61499-1.06982-.92273-1.60474-1.53772-2.67456-.26831-.4668-.34558-.4292-.46252-.36133-.1427.08301-.21375.12451-.35596.20874-.05725-.09668-.08582-.14502-.14294-.2417.69543-.41138,1.04626-.60986,1.75342-.99194,1.16626-.63013,1.74976-.33032,1.99756.16699.3053.61279-.0625,1.14551-.44617,1.47046Zm-1.48657-1.35303c-.20691.11206-.31018.16895-.51611.28369.33911.60864.50842.91284.84741,1.52148.19421-.10815.2915-.16187.48657-.26758.59631-.32349.75012-.87427.54346-1.27563-.20728-.40234-.65063-.64746-1.36133-.26196Z"/><path class="cls-5" d="m28.25838,36.70733c-.04822-.10156-.07227-.15234-.12048-.25391.21057-.09985.31604-.14917.52747-.24658-.51562-1.12109-.77356-1.68188-1.28906-2.80298-.22485-.48901-.30444-.45923-.42554-.40283-.14795.06885-.22168.10352-.36914.17358-.04822-.10156-.07227-.1521-.12036-.25366,1.24072-.58936,1.8689-.8623,3.13721-1.36475l.40039,1.01074c-.15601.06201-.23413.09326-.38977.15649-.16223-.28223-.24365-.42334-.40723-.70508-.57031.23291-.85437.354-1.41919.60474.27466.61914.41187.92822.6864,1.54736.36267-.16089.54468-.2395.90967-.39307-.10046-.23901-.15063-.35864-.2511-.59766.12671-.05322.19019-.07983.31714-.13208.23938.58105.35901.87134.59851,1.45239-.12305.05078-.18457.07642-.30725.12793-.10229-.24341-.15344-.36523-.25562-.60864-.36316.15259-.54419.23071-.90491.39087.27148.61206.40735.91821.67896,1.53052.58728-.26074.88257-.38574,1.4762-.62598-.07227-.31079-.10803-.46606-.17871-.77734.13257-.05322.19897-.07959.33191-.13184l.39062.99487c-1.21985.47925-1.82373.74048-3.01611,1.30688Z"/><path class="cls-5" d="m35.71542,33.90362c-.03064-.10815-.0459-.16211-.07654-.27026.22083-.0625.33142-.09302.55298-.15283-.32654-1.20801-.48975-1.81201-.81616-3.02002-.37061,1.5127-.53015,2.26953-.79846,3.78076-.04163.03076-.06226.04639-.10376.07715-1.08875-1.1062-1.65649-1.64526-2.83618-2.69214.41809,1.17944.62695,1.76904,1.04504,2.94849.21741-.07715.32629-.11499.54443-.18921.03625.1062.05432.15942.09058.26587-.59448.20264-.8905.30908-1.47974.53198-.03967-.10522-.05957-.15771-.09924-.2627.21606-.08179.32434-.12207.54126-.20117-.42261-1.15942-.63391-1.73926-1.05652-2.89868-.18433-.50586-.26538-.48267-.38977-.43677-.15173.05615-.22742.08447-.37891.1416-.03967-.10498-.05957-.15747-.09924-.2627.52795-.19971.79285-.29565,1.32483-.48071.01843.05298.02771.07983.04614.13281,1.11377.9917,1.65088,1.50171,2.68372,2.5459.26257-1.44385.41675-2.16724.77161-3.61255-.01465-.0542-.02197-.08154-.03662-.13574.51685-.13989.77576-.2063,1.29529-.33276.02661.10938.03979.16382.06641.27295-.23938.05811-.35901.08813-.5979.14917.30615,1.19556.45923,1.79346.76526,2.98901.13354.52148.20959.50781.32825.47803.1449-.03638.21741-.05444.36255-.0896.02649.10913.03979.16357.06641.27295-.68896.16748-1.0321.25757-1.7157.45117Z"/><path class="cls-5" d="m37.83627,33.35577c-.02563-.10962-.03845-.16406-.06409-.27344.2229-.05225.33459-.07764.55798-.1272-.26697-1.20483-.40051-1.80737-.66748-3.01221-.11633-.52563-.19897-.51343-.32715-.48438-.15637.03516-.23438.05322-.39062.08984-.02563-.10962-.03845-.16406-.06396-.27368,1.31396-.30737,1.97534-.43945,3.30261-.6604.07141.42896.10718.64355.17859,1.07251-.16333.02734-.245.04126-.4082.06982-.09851-.3103-.14807-.46558-.24792-.77539-.59814.10596-.89673.16333-1.49219.28687.13782.66309.20654.99438.34424,1.65747.38232-.07935.57385-.11719.95728-.18896-.04785-.25488-.07166-.38232-.11951-.63721.13306-.0249.19971-.03735.33289-.06128.11157.61841.16736.92749.27893,1.54614-.12903.02319-.19348.03491-.32251.05908-.04858-.25952-.07288-.3894-.12158-.64893-.38135.07153-.57178.10913-.95215.18799.13623.65576.20435.98364.34045,1.6394.61914-.12842.92944-.1875,1.55151-.29541-.00574-.31885-.00842-.47827-.01257-.79736.13879-.02368.20837-.0354.34729-.05811.06909.42212.10352.63281.17249,1.05493-1.276.20825-1.91162.33423-3.17432.62988Z"/><path class="cls-5" d="m45.61654,32.20147c-.0072-.11206-.01086-.16797-.01819-.28027.22729-.01465.34094-.02124.56824-.03345-.06628-1.24951-.09937-1.87427-.16565-3.12378-.67334,1.40112-.98486,2.10767-1.5575,3.52832-.04663.02124-.06982.03223-.11646.05347-.82568-1.31055-1.26379-1.95752-2.18835-3.23022.16077,1.24121.24121,1.86157.4021,3.10254.22607-.0293.33923-.04321.56555-.06982.01318.11157.01965.16724.03284.27905-.61707.07227-.92517.11353-1.54004.20605-.01672-.11108-.02515-.1665-.04187-.27759.22559-.03394.3385-.05029.56433-.08154-.16931-1.22241-.25403-1.83398-.42346-3.05615-.07385-.5332-.15698-.52783-.28662-.50928-.1582.02246-.23706.03418-.39514.05786-.01672-.11108-.02515-.1665-.04187-.27759.55103-.08301.8269-.12085,1.37964-.18896.00684.05566.01025.08374.01709.1394.87256,1.20459,1.28699,1.81665,2.07166,3.05493.55322-1.3562.85242-2.03125,1.4967-3.36987-.00305-.05591-.00452-.08423-.00757-.14014.53064-.02832.7959-.03931,1.3269-.05396.00317.1123.00476.16821.00793.28076-.24475.00684-.36707.01074-.61182.02051.04907,1.23315.07361,1.84985.12268,3.08301.02136.53784.09814.54053.21948.53638.14832-.00537.22253-.00781.37085-.01172.00317.1123.00464.16821.00781.28052-.7041.01978-1.05603.03613-1.75928.08154Z"/><path class="cls-5" d="m49.77254,32.11334c-.79297-.01758-1.18982-.01831-1.98291-.00293-.00208-.11255-.00317-.16846-.00537-.28101.22754-.00415.34131-.00586.56897-.00757-.00916-1.23389-.01367-1.85132-.02271-3.08521-.00403-.53833-.08691-.5437-.21753-.54224-.15942.00195-.23901.00317-.39844.0061-.0022-.1123-.0033-.16821-.00537-.28076.77722-.01489,1.16577-.01489,1.94299-.00073,1.15491.021,1.64026.56348,1.61267,1.11279-.02161.42651-.42078.92944-1.09949.97095-.00024.00732-.00037.01123-.00061.01855.83423.08496,1.245.57153,1.21741,1.07202-.03052.55518-.56738,1.04346-1.60962,1.02002Zm-.31152-3.91675c-.18152-.00269-.27234-.00366-.45386-.00464-.00403.67725-.00598,1.01562-.00989,1.69287.25818.00146.38721.00317.64551.00781.52539.01001.90894-.46436.92432-.8855.01526-.41504-.26697-.79834-1.10608-.81055Zm.30249,1.96094c-.30701-.00659-.46069-.00854-.76782-.0105-.00391.66968-.00586,1.00464-.00977,1.67432.28137.00171.42224.00366.70361.00928.64539.01318,1.00769-.38452,1.02502-.8064.01758-.42676-.30273-.85278-.95105-.8667Z"/><path class="cls-5" d="m54.48165,30.4212c-.00122.00977-.00171.0144-.00293.02417.32166.38916.62598,1.0625.88623,1.6167.04565.09302.12866.24048.23645.2561.12671.01855.19006.02783.31665.04712-.01685.11108-.02527.1665-.04211.27759-.38062-.05762-.57104-.08472-.95239-.13477-.24963-.59351-.63928-1.48511-1.09326-2.04785-.21851-.02271-.32788-.03345-.54663-.05371-.03992.43066-.05994.64624-.09985,1.0769-.04968.53589.02661.54883.14758.56055.14783.01416.2218.02173.36951.03711-.01172.11182-.01746.16748-.02917.2793-.70142-.07349-1.05261-.10352-1.75574-.15088.00757-.11206.01135-.16821.01892-.28027.22717.01538.34082.02368.56775.04175.09778-1.23022.14661-1.8457.24426-3.07568.0426-.53662-.03955-.54907-.16992-.55884-.15918-.01196-.23853-.01782-.39771-.02832.00757-.1123.01135-.16821.01892-.28027.77856.05249,1.16736.08594,1.94397.16772,1.28088.13477,1.58704.70947,1.51099,1.26025-.09363.67798-.68445.91235-1.17151.96533Zm-.44434-1.9541c-.22729-.02368-.34106-.03491-.56873-.05591-.06421.69385-.09644,1.04028-.16077,1.73413.21472.01978.3219.03052.53638.05249.6554.06787,1.08386-.30127,1.13977-.74927.05603-.44897-.16553-.90039-.94666-.98145Z"/><path class="cls-5" d="m59.00777,33.22662c.02429-.10986.03638-.16455.06067-.27441.19592.04346.29382.06567.48938.11108-.06299-.35352-.09595-.53027-.16394-.88379-.81177-.18213-1.21924-.2644-2.03638-.41138-.20251.29883-.30261.44849-.50037.74951.19714.03394.29578.05151.49255.0874-.02026.1106-.03027.16577-.05054.27637-.53967-.09888-.81018-.14429-1.35193-.22754.01709-.11108.02563-.1665.04272-.27759.19006.0293.28516.04419.47498.07544.91626-1.43481,1.40076-2.14258,2.42151-3.53345.17444.03467.2616.05249.43567.08887.37769,1.61646.54053,2.42627.81519,4.04272.02295.15112.17749.19556.24622.21265.09998.02515.14978.03784.24951.06348-.02783.10889-.04187.16309-.06982.27197-.62024-.15918-.93127-.2334-1.55542-.37134Zm-.16467-3.60107c-.54688.75464-.81274,1.1355-1.32922,1.90332.73096.1333,1.09534.20679,1.8219.36792-.18066-.90845-.2793-1.36304-.49268-2.27124Z"/><path class="cls-5" d="m64.55794,34.81207c-.66235-1.64844-1.03687-2.46973-1.87244-4.09546-.33484,1.17554-.5022,1.76294-.83704,2.93823.22083.06299.33105.09521.55127.16064-.03198.10767-.0481.16162-.08008.26929-.60022-.17896-.90161-.26318-1.5061-.42188.02856-.10864.04272-.16284.07129-.27173.2218.05835.33252.08813.55383.14893.32751-1.1897.49133-1.78491.81897-2.97461.14282-.51904.06384-.54688-.06323-.5813-.15515-.04199-.23267-.06274-.38806-.10352.02856-.10864.04272-.16284.07129-.27148.43677.1145.65466.17432,1.08936.29858.81384,1.55908,1.18127,2.34692,1.83691,3.92822.38464-1.09766.5769-1.64648.96155-2.74438-.23413-.08203-.35144-.12231-.5863-.20142l.08972-.26611c.64758.21826.97009.33276,1.61182.573-.03931.10522-.05896.15771-.09839.26294-.23291-.08716-.34949-.12988-.58337-.21411-.53027,1.47144-.79541,2.20703-1.32568,3.67871-.1261-.04541-.18909-.06787-.31531-.11255Z"/><path class="cls-5" d="m67.91854,36.22223c-1.10266-.48633-1.96765-1.62061-1.45996-2.95068.46619-1.22168,1.97693-1.5498,3.2251-.99854.43286.19116.82556.49268,1.12878.8728.07336-.1084.11011-.16284.18359-.27124.13843.06592.20752.09912.34546.16577-.23315.48169-.34985.72266-.58301,1.20435-.12952-.06274-.19434-.09399-.3241-.15576.15698-.50732.06775-1.1792-.79456-1.56128-.89355-.396-2.07446-.0647-2.50232,1.00879-.41833,1.0498.05554,2.03662.98511,2.44873.36389.16138.80005.23999,1.30286.19507.02747.10791.04089.16211.06763.27002-.50964.10693-1.0708-.00562-1.57458-.22803Z"/><path class="cls-5" d="m70.06319,37.15142c.05042-.10059.07544-.15063.12585-.25122.20886.10474.31299.15771.52087.26489.56616-1.09644.84924-1.64478,1.41541-2.74146.24683-.47827.17383-.52271.05432-.58374-.14587-.07446-.21875-.11157-.36511-.18481.05029-.10059.07544-.15063.12585-.25098,1.23096.6167,1.83923.94702,3.03711,1.65039-.22021.37524-.33032.56274-.55066.93774-.14734-.08667-.22131-.12964-.36926-.21484.12207-.302.18286-.45312.30359-.75562-.54297-.31128-.81641-.4624-1.36621-.7561-.31885.59766-.47815.89624-.797,1.49365.35315.18848.52893.28442.87903.48047.12671-.22632.19006-.3396.31677-.56592.12146.06812.18213.10229.30334.17114-.31067.54639-.46594.81934-.77661,1.36548-.11743-.06665-.17627-.09985-.29395-.16577.12891-.23047.19348-.3457.32239-.57617-.34827-.19482-.52319-.29053-.87439-.47778-.31531.59058-.4729.88623-.78821,1.47705.57178.30518.85559.46289,1.41931.78857.20129-.2478.30212-.37134.50476-.61816.12561.073.18835.10986.3136.18384-.21765.36816-.32629.552-.54407.92017-1.14954-.67993-1.73364-.99805-2.91675-1.59082Z"/></g></g></g></svg>