<?xml version="1.0" encoding="UTF-8"?><svg xmlns="http://www.w3.org/2000/svg" viewBox="0 0 97.41157 102.5235"><defs><style>.cls-1{mix-blend-mode:multiply;}.cls-2{isolation:isolate;}.cls-3{fill:#f7e288;}.cls-3,.cls-4{stroke-width:0px;}.cls-4{fill:#399a75;}</style></defs><g class="cls-2"><g id="Layer_1"><polygon class="cls-3" points="65.37269 51.26516 73.70274 63.57168 57.03582 63.57168 48.70576 75.8782 40.37575 63.57168 23.70883 63.57168 32.03884 51.26516 23.70883 38.95178 40.37575 38.95178 48.70576 26.6453 57.03582 38.95178 73.70274 38.95178 65.37269 51.26516"/><g class="cls-1"><polygon class="cls-4" points="57.03582 38.95182 48.70581 51.10749 48.70581 26.6453 57.03582 38.95182"/><polygon class="cls-4" points="73.70274 63.57168 57.03582 63.57168 48.80862 51.26516 49.02115 51.26516 73.70274 63.57168"/><polygon class="cls-4" points="48.70581 51.26516 48.70581 75.8782 40.37575 63.57168 48.60295 51.26516 48.70581 51.26516"/><polygon class="cls-4" points="48.39041 51.26516 23.70883 63.57168 32.03884 51.26516 48.39041 51.26516"/><polygon class="cls-4" points="48.70581 51.10749 23.70883 38.95182 40.37575 38.95182 48.70581 51.10749"/><polygon class="cls-4" points="73.70274 38.95182 65.37273 51.26516 49.02115 51.26516 48.70581 51.10749 73.70274 38.95182"/></g></g></g></svg>