<?xml version="1.0" encoding="UTF-8"?><svg xmlns="http://www.w3.org/2000/svg" viewBox="0 0 288 156.79014"><defs><style>.cls-1,.cls-2{mix-blend-mode:multiply;}.cls-1,.cls-3{fill:#f5989e;}.cls-1,.cls-3,.cls-4,.cls-5,.cls-6{stroke-width:0px;}.cls-7{stroke:#3b7e91;stroke-width:.70369px;}.cls-7,.cls-2{fill:none;stroke-miterlimit:10;}.cls-2{stroke:#f5989e;stroke-width:1.09791px;}.cls-8{isolation:isolate;}.cls-4{fill:#f7e288;}.cls-5{fill:#399a75;}.cls-6{fill:#3b7e91;}</style></defs><g class="cls-8"><g id="Layer_1"><path class="cls-6" d="m70.67898,108.01374l-.01224-.08818c-.00795-.1718-.03011-.33887-.06936-.50054l-4.10493-29.61125-10.15012-.8331-5.5203,30.24227c-.07868.23786-.12954.48752-.13692.74999l-.00743.0408h.00335c-.00013.0113-.00335.02178-.00335.03311,0,1.45634,1.18061,2.63699,2.63699,2.63699,1.12164,0,2.0734-.70322,2.45458-1.69046.38114.98724,1.33286,1.69046,2.45454,1.69046s2.07336-.70322,2.45454-1.69042c.38118.9872,1.33291,1.69042,2.45454,1.69042s2.07345-.70322,2.45458-1.69046c.38114.98724,1.33286,1.69046,2.45454,1.69046,1.45639,0,2.63699-1.18065,2.63699-2.63699,0-.01134-.00322-.02182-.00335-.03311h.00335Z"/><path class="cls-5" d="m101.59826,31.59182s4.99143,19.69093-5.80093,17.63944c-10.79236-2.05149,5.80093-17.63944,5.80093-17.63944Z"/><line class="cls-2" x1="96.01387" y1="49.26373" x2="99.58096" y2="40.07651"/><path class="cls-5" d="m108.87702,26.4564s19.59723,5.34748,12.49921,13.7321-12.49921-13.7321-12.49921-13.7321Z"/><line class="cls-2" x1="121.51108" y1="40.01598" x2="115.2697" y2="32.38877"/><path class="cls-5" d="m134.51865,20.34755s3.84651,19.94622-6.80944,17.27519c-10.65595-2.67102,6.80944-17.27519,6.80944-17.27519Z"/><line class="cls-2" x1="127.92352" y1="37.66765" x2="132.01496" y2="28.70165"/><path class="cls-5" d="m143.00162,18.40519s11.0255,17.16228.07878,18.08581c-10.94672.92353-.07878-18.08581-.07878-18.08581Z"/><line class="cls-2" x1="143.32969" y1="36.11445" x2="144.29728" y2="26.30665"/><path class="cls-5" d="m177.51546,27.05246s-19.59723,5.34748-12.49921,13.7321c7.09802,8.38461,12.49921-13.7321,12.49921-13.7321Z"/><line class="cls-2" x1="164.8814" y1="40.61205" x2="171.12278" y2="32.98484"/><path class="cls-5" d="m151.87383,20.94361s-3.84651,19.94622,6.80944,17.27519c10.65595-2.67102-6.80944-17.27519-6.80944-17.27519Z"/><line class="cls-2" x1="158.46896" y1="38.26371" x2="154.37752" y2="29.29771"/><path class="cls-3" d="m117.83106,49.69081c-.15264-.10374-.31145-.18134-.46793-.27.28904-.16046.57336-.3448.84775-.55772,2.12558-1.64921,2.87276-4.24397,1.66886-5.79563-1.20392-1.55159-3.9029-1.47249-6.02848.17672-.24819.19252-.4734.40024-.68307.61541-.06275-.31162-.14939-.62609-.26229-.93956-.91162-2.53119-3.14853-4.04363-4.99627-3.37813-1.84772.66542-2.60657,3.25687-1.69492,5.78798.02799.07759.06784.14492.09826.22055-2.61542.14232-4.66656,1.76672-4.60579,3.69179.06196,1.96295,2.29204,3.48541,4.98104,3.40057.0149-.00048.02847-.00401.04331-.00459-.09019.21901-.18184.43723-.2502.67263-.75024,2.58355.17048,5.12201,2.05645,5.66968s4.02312-1.1028,4.77336-3.68635c.01129-.03888.01404-.07712.0246-.11595.1622.13453.3188.27303.49856.39514,2.22531,1.51192,4.92399,1.42072,6.02767-.20364,1.10371-1.62445.1944-4.16697-2.03092-5.67889Z"/><circle class="cls-4" cx="111.09158" cy="49.30387" r=".64204"/><path class="cls-3" d="m149.21463,41.64087c-.11356-.14548-.24099-.26797-.36282-.40028.32428-.06428.65138-.15273.97778-.27144,2.52838-.91938,4.03398-3.16085,3.36286-5.00656-.67117-1.84564-3.2648-2.59652-5.79319-1.67715-.2952.1073-.57319.23612-.83866.37677.03566-.31587.04944-.64177.03791-.97475-.09304-2.68874-1.75958-4.81332-3.72234-4.74538-1.96271.06786-3.47841,2.30263-3.38533,4.99129.00289.08243.02022.15873.02603.24004-2.53344-.66512-4.98336.25342-5.51479,2.10469-.5419,1.88768,1.11508,4.01972,3.70097,4.76208.01433.00411.02833.0049.04264.00889-.1529.18089-.30696.36058-.44409.56375-1.50508,2.22987-1.40561,4.92831.22218,6.02701s4.16757.18166,5.67266-2.04821c.02265-.03356.03697-.06912.05891-.10285.11323.17772.21991.35751.35367.52878,1.65567,2.12054,4.25271,2.85981,5.80065,1.65128,1.54799-1.20861,1.46062-3.90743-.19505-6.02797Z"/><circle class="cls-4" cx="142.91712" cy="39.20947" r=".64204"/><path class="cls-3" d="m84.15499,56.12128c-.15264-.10374-.31145-.18134-.46793-.27.28904-.16046.57336-.3448.84775-.55772,2.12558-1.64921,2.87276-4.24397,1.66886-5.79563-1.20392-1.55159-3.9029-1.47249-6.02848.17672-.24819.19252-.4734.40024-.68307.61541-.06275-.31162-.14939-.62609-.26229-.93956-.91162-2.53119-3.14853-4.04363-4.99627-3.37813-1.84772.66542-2.60657,3.25687-1.69492,5.78798.02799.07759.06784.14492.09826.22055-2.61542.14232-4.66656,1.76672-4.60579,3.69179.06196,1.96295,2.29204,3.48541,4.98104,3.40057.0149-.00048.02847-.00401.04331-.00459-.09019.21901-.18184.43723-.2502.67263-.75024,2.58355.17048,5.12201,2.05645,5.66968s4.02312-1.1028,4.77336-3.68635c.01129-.03888.01404-.07712.0246-.11595.1622.13453.3188.27303.49856.39514,2.22531,1.51192,4.92399,1.42072,6.02767-.20364,1.10371-1.62445.1944-4.16697-2.03092-5.67889Z"/><circle class="cls-4" cx="77.4155" cy="55.73434" r=".64204"/><path class="cls-4" d="m132.97335,42.48062c-.15722-.09666-.3194-.16694-.47976-.24837.28142-.17348.55703-.3706.82142-.59582,2.04811-1.74448,2.67612-4.37063,1.40267-5.86575-1.27346-1.49504-3.96603-1.29287-6.01414.45162-.23914.20364-.45464.42142-.65428.64594-.0769-.30843-.1778-.61862-.30489-.92662-1.02617-2.48696-3.32976-3.89575-5.14521-3.14664-1.81543.74903-2.45525,3.37242-1.42905,5.85929.0315.07623.07438.14168.10822.21584-2.6062.26151-4.58108,1.97781-4.43253,3.89811.15146,1.95808,2.44869,3.3772,5.13102,3.16974.01486-.00115.02825-.0053.04306-.00656-.0801.22289-.1617.44508-.21925.68335-.63157,2.61509.40402,5.10889,2.31301,5.56994,1.909.46104,3.96861-1.28523,4.60018-3.90032.0095-.03935.0105-.07768.01928-.11695.16817.12698.33092.2582.51607.37197,2.29198,1.40881,4.98368,1.19457,6.0121-.47847,1.02844-1.67312.00406-4.1715-2.28792-5.58031Z"/><circle class="cls-1" cx="126.22323" cy="42.4016" r=".64204"/><path class="cls-4" d="m100.61508,53.69566c-.1234-.13723-.25904-.25056-.38977-.37408.31903-.08668.63918-.19766.95654-.33877,2.45834-1.09296,3.80443-3.4337,3.0066-5.22827-.79788-1.7945-3.43744-2.36323-5.89578-1.27027-.28703.12757-.55538.2754-.81044.43418.01361-.31759.00469-.64365-.02996-.97503-.27977-2.67576-2.09001-4.67932-4.04329-4.47507-1.95324.20417-3.30988,2.53892-3.03007,5.21461.00862.08203.03121.15694.04266.23765-2.57355-.48735-4.95368.59932-5.35509,2.48305-.40933,1.92079,1.39189,3.93245,4.02314,4.49321.01458.0031.0286.00292.04315.0059-.13995.19108-.28114.38105-.40382.59327-1.34639,2.32913-1.05953,5.01412.64072,5.99697,1.70024.98285,4.17012-.10857,5.51651-2.43769.02026-.03505.03207-.07153.05162-.1067.12532.16942.24424.34135.38959.50291,1.79911,2.00028,4.44127,2.55719,5.90143,1.24394,1.4602-1.31332,1.18539-3.99953-.61372-5.99982Z"/><circle class="cls-1" cx="94.16374" cy="51.70803" r=".64204"/><path class="cls-6" d="m73.858,67.01766c0,4.91039-3.05365,9.10757-7.36555,10.79614-1.30899.51261-2.73394.79403-4.22462.79403-2.16513,0-4.1916-.59368-5.9255-1.62714-3.39226-2.02189-5.66466-5.72708-5.66466-9.96302,0-6.40107,5.18909-11.59017,11.59017-11.59017s11.59017,5.18909,11.59017,11.59017Z"/><ellipse class="cls-6" cx="55.41312" cy="52.2384" rx="5.85393" ry="7.34529" transform="translate(-14.84509 22.85732) rotate(-20.61675)"/><ellipse class="cls-6" cx="68.79148" cy="52.76823" rx="7.34529" ry="5.85393" transform="translate(2.08268 108.14594) rotate(-77.18837)"/><path class="cls-5" d="m185.854,31.59182s-4.99143,19.69093,5.80093,17.63944c10.79236-2.05149-5.80093-17.63944-5.80093-17.63944Z"/><line class="cls-2" x1="191.43839" y1="49.26373" x2="187.87131" y2="40.07651"/><path class="cls-3" d="m167.59029,55.36971c1.10369,1.62436,3.80236,1.71556,6.02767.20364.17977-.12211.33636-.26061.49856-.39514.01056.03882.01331.07707.0246.11595.75024,2.58355,2.88739,4.23402,4.77336,3.68635s2.80669-3.08613,2.05645-5.66968c-.06836-.2354-.16001-.45362-.2502-.67263.01484.00058.02841.00411.04331.00459,2.689.08485,4.91908-1.43762,4.98104-3.40057.06077-1.92507-1.99036-3.54947-4.60579-3.69179.03042-.07563.07028-.14296.09826-.22055.91165-2.53111.1528-5.12256-1.69492-5.78798-1.84774-.6655-4.08465.84694-4.99627,3.37813-.1129.31347-.19954.62794-.26229.93956-.20967-.21517-.43488-.4229-.68307-.61541-2.12558-1.64921-4.82456-1.72831-6.02848-.17672-1.2039,1.55167-.45671,4.14642,1.66886,5.79563.27439.21292.55871.39726.84775.55772-.15648.08866-.31529.16626-.46793.27-2.22531,1.51192-3.13463,4.05445-2.03092,5.67889Z"/><circle class="cls-4" cx="176.36069" cy="49.30387" r=".64204"/><path class="cls-3" d="m201.26636,61.80018c1.10369,1.62436,3.80236,1.71556,6.02767.20364.17977-.12211.33636-.26061.49856-.39514.01056.03882.01331.07707.0246.11595.75024,2.58355,2.88739,4.23402,4.77336,3.68635s2.80669-3.08613,2.05645-5.66968c-.06836-.2354-.16001-.45362-.2502-.67263.01484.00058.02841.00411.04331.00459,2.689.08485,4.91908-1.43762,4.98104-3.40057.06077-1.92507-1.99036-3.54947-4.60579-3.69179.03042-.07563.07028-.14296.09826-.22055.91165-2.53111.1528-5.12256-1.69492-5.78798-1.84774-.6655-4.08465.84694-4.99627,3.37813-.1129.31347-.19954.62794-.26229.93956-.20967-.21517-.43488-.4229-.68307-.61541-2.12558-1.64921-4.82456-1.72831-6.02848-.17672-1.2039,1.55167-.45671,4.14642,1.66886,5.79563.27439.21292.55871.39726.84775.55772-.15648.08866-.31529.16626-.46793.27-2.22531,1.51192-3.13463,4.05445-2.03092,5.67889Z"/><circle class="cls-4" cx="210.03676" cy="55.73434" r=".64204"/><path class="cls-4" d="m151.85371,47.6643c1.02842,1.67303,3.72012,1.88727,6.0121.47847.18515-.11378.34791-.24499.51607-.37197.00878.03926.00978.07759.01928.11695.63157,2.61509,2.69119,4.36136,4.60018,3.90032,1.909-.46104,2.94459-2.95484,2.31301-5.56994-.05755-.23827-.13915-.46045-.21925-.68335.0148.00126.02819.0054.04306.00656,2.68233.20745,4.97955-1.21167,5.13102-3.16974.14855-1.92029-1.82633-3.6366-4.43253-3.89811.03384-.07416.07673-.13961.10822-.21584,1.02619-2.48687.38638-5.11026-1.42905-5.85929-1.81545-.74912-4.11904.65968-5.14521,3.14664-.12709.30799-.22799.61818-.30489.92662-.19964-.22451-.41513-.4423-.65428-.64594-2.04811-1.74448-4.74068-1.94665-6.01414-.45162-1.27344,1.49512-.64544,4.12127,1.40267,5.86575.26439.22522.54.42234.82142.59582-.16037.08143-.32255.1517-.47976.24837-2.29198,1.40881-3.31636,3.90719-2.28792,5.58031Z"/><circle class="cls-1" cx="160.89176" cy="42.00498" r=".64204"/><path class="cls-4" d="m186.22347,59.69548c1.46016,1.31325,4.10232.75634,5.90143-1.24394.14535-.16156.26427-.3335.38959-.50291.01954.03517.03135.07165.05162.1067,1.34639,2.32913,3.81627,3.42054,5.51651,2.43769,1.70024-.98285,1.9871-3.66785.64072-5.99697-.12267-.21222-.26386-.40219-.40382-.59327.01455-.00299.02857-.0028.04315-.0059,2.63125-.56076,4.43247-2.57242,4.02314-4.49321-.40142-1.88373-2.78154-2.97041-5.35509-2.48305.01145-.08071.03405-.15562.04266-.23765.27981-2.67569-1.07683-5.01043-3.03007-5.21461-1.95329-.20425-3.76353,1.79931-4.04329,4.47507-.03465.33138-.04357.65744-.02996.97503-.25505-.15878-.52341-.30661-.81044-.43418-2.45834-1.09296-5.09791-.52423-5.89578,1.27027-.79783,1.79458.54826,4.13532,3.0066,5.22827.31735.14111.63751.2521.95654.33877-.13074.12352-.26637.23685-.38977.37408-1.79911,2.00028-2.07392,4.6865-.61372,5.99982Z"/><circle class="cls-1" cx="193.28852" cy="51.70803" r=".64204"/><path class="cls-4" d="m72.49145,77.81307l30.99542,16.95476,39.73772,8.7423,51.12919-14.04066,18.80919-14.30558.38935,2.64918h0v30.7305s-33.90139,29.84138-70.52637,29.84138-70.5345-29.84138-70.5345-29.84138v-30.7305h0"/><path class="cls-6" d="m214.8769,71.98487l2.38426,1.85443s-32.84182,36.02886-74.23527,36.02886-74.2433-36.02886-74.2433-36.02886l2.38426-1.85443s27.15411,26.49181,71.9915,26.49181,71.71855-26.49181,71.71855-26.49181Z"/><line class="cls-7" x1="78.84948" y1="80.85963" x2="78.84948" y2="108.80849"/><line class="cls-7" x1="86.26719" y1="86.95275" x2="86.26719" y2="114.10685"/><line class="cls-7" x1="93.0226" y1="90.92652" x2="93.0226" y2="117.55079"/><line class="cls-7" x1="99.91047" y1="96.22488" x2="99.91047" y2="120.59735"/><line class="cls-7" x1="207.2023" y1="80.85963" x2="207.2023" y2="108.80849"/><line class="cls-7" x1="199.7846" y1="86.95275" x2="199.7846" y2="114.10685"/><line class="cls-7" x1="193.02919" y1="90.92652" x2="193.02919" y2="117.55079"/><line class="cls-7" x1="186.14131" y1="96.22488" x2="186.14131" y2="120.59735"/><polyline class="cls-4" points="59.13059 81.22389 55.61176 102.48357 59.58553 101.98685 60.30539 81.22389"/><polyline class="cls-4" points="63.41818 81.32324 66.93701 102.58291 62.96324 102.08619 62.24338 81.32324"/><path class="cls-6" d="m234.59706,108.01374l-.01224-.08818c-.00795-.1718-.03011-.33887-.06936-.50054l-4.10493-29.61125-10.15012-.8331-5.5203,30.24227c-.07868.23786-.12954.48752-.13692.74999l-.00743.0408h.00335c-.00013.0113-.00335.02178-.00335.03311,0,1.45634,1.18061,2.63699,2.63699,2.63699,1.12164,0,2.0734-.70322,2.45458-1.69046.38114.98724,1.33286,1.69046,2.45454,1.69046s2.07336-.70322,2.45454-1.69042c.38118.9872,1.33291,1.69042,2.45454,1.69042s2.07345-.70322,2.45458-1.69046c.38114.98724,1.33286,1.69046,2.45454,1.69046,1.45639,0,2.63699-1.18065,2.63699-2.63699,0-.01134-.00322-.02182-.00335-.03311h.00335Z"/><path class="cls-6" d="m237.77607,67.01766c0,4.91039-3.05365,9.10757-7.36555,10.79614-1.30899.51261-2.73394.79403-4.22462.79403-2.16513,0-4.1916-.59368-5.9255-1.62714-3.39226-2.02189-5.66466-5.72708-5.66466-9.96302,0-6.40107,5.18909-11.59017,11.59017-11.59017s11.59017,5.18909,11.59017,11.59017Z"/><ellipse class="cls-6" cx="219.3312" cy="52.2384" rx="5.85393" ry="7.34529" transform="translate(-4.34723 80.57538) rotate(-20.61675)"/><ellipse class="cls-6" cx="232.70956" cy="52.76823" rx="7.34529" ry="5.85393" transform="translate(129.65252 267.98318) rotate(-77.18837)"/><polyline class="cls-4" points="223.04867 81.22389 219.52984 102.48357 223.50361 101.98685 224.22347 81.22389"/><polyline class="cls-4" points="227.33626 81.32324 230.85509 102.58291 226.88132 102.08619 226.16146 81.32324"/><path class="cls-6" d="m118.49124,72.03035c-1.6571-.62476-2.89624-2.2915-2.11548-4.0957.71716-1.65723,2.66589-2.08154,4.24756-1.48608.54919.20679,1.05518.55151,1.47302,1.00928.08215-.16089.12305-.24146.20483-.40234.17822.06177.26746.09253.44604.15308-.23755.69995-.3562,1.0498-.59375,1.74976-.17651-.05981-.26477-.09009-.44092-.15137.14453-.71777-.03284-1.59277-1.13708-2.00708-1.14526-.42969-2.6748.04956-3.28784,1.52197-.59985,1.44067.09082,2.84912,1.47375,3.36768.54065.20264,1.18152.27368,1.88245.1416.05713.14478.08594.21704.14392.36182-.70398.2229-1.53918.1228-2.29651-.1626Z"/><path class="cls-6" d="m124.67825,74.05842c-1.99426-.55835-2.81604-2.40234-2.35254-3.80542.62976-1.90674,2.48938-2.36133,3.95483-1.95068,1.46594.41064,2.8175,1.76514,2.36511,3.72144-.33289,1.4397-1.97363,2.59302-3.96741,2.03467Zm1.49536-5.37427c-1.06104-.29736-2.38464.19702-2.89954,1.83081s.37048,2.80664,1.51086,3.12622c1.14087.31958,2.51062-.22144,2.91931-1.88525.40869-1.66357-.46912-2.77441-1.53064-3.07178Z"/><path class="cls-6" d="m134.33462,75.98103c-1.43201-2.06421-2.09314-3.11475-3.3042-5.23779-.33215,1.65503-.49829,2.48267-.83044,4.1377.32642.06543.48987.09741.81677.15918l-.07202.38086c-.90125-.17017-1.35095-.26245-2.24792-.46094.03357-.15137.05029-.22705.08374-.37842.32544.07202.48828.10693.81433.17529.34949-1.6687.52417-2.50293.87354-4.17163.1521-.72656.05164-.75635-.11023-.79102-.19812-.04224-.29712-.06372-.495-.10767.03357-.15137.05029-.22705.08374-.37842.54919.12134.82434.1792,1.37537.28931,1.13074,2.02271,1.7467,3.02441,3.07874,4.99512.22791-1.59058.34192-2.38574.56995-3.97632-.30652-.04395-.45972-.06665-.76587-.11401.02368-.15332.03552-.22998.05933-.3833.83447.12915,1.25256.1875,2.08984.29077-.01892.15405-.02844.23096-.04749.38477-.30713-.03784-.46069-.05762-.76746-.09912-.28882,2.14087-.43311,3.21143-.72192,5.35229-.19312-.02612-.28967-.03931-.48279-.06665Z"/><path class="cls-6" d="m138.91446,76.58699c-.65405-.05151-1.27173-.31372-1.68066-.71191-.05225.21875-.07849.32837-.13123.54712-.20154-.021-.30237-.03174-.50378-.05396.07947-.72144.11926-1.08203.19885-1.80347.19653.02148.2948.03198.49146.05249.05615.31128.08472.46704.14282.77808.30164.41992.92004.73145,1.4408.77295.75317.06006,1.31104-.20264,1.35657-.93555.03662-.58984-.52124-.90625-1.17822-1.30151-.78284-.47095-1.75562-1.02686-1.64197-2.10107.07275-.68848.70203-1.30298,1.80249-1.21338.55029.04468.96509.28369,1.26733.59888.04041-.20068.06055-.30103.10059-.50171.18591.01147.27881.01685.46472.02686-.04004.73804-.06006,1.10718-.1001,1.84521-.18396-.01001-.276-.01538-.45996-.02661-.07971-.58789-.31543-1.51953-1.1886-1.58911-.52698-.04199-1.03333.24927-1.08801.82886-.06897.7312.81458,1.22607,1.40894,1.58252.7843.47095,1.58191.86523,1.53516,1.80957-.05298,1.07007-1.13354,1.48267-2.23718,1.39575Z"/><path class="cls-6" d="m143.31131,76.701c.00305-.15503.00452-.23267.00757-.3877.3313.00635.49707.00879.82849.01147.01648-2.00513.02478-3.00781.04126-5.01294-.59363-.00488-.89038-.0105-1.48376-.02808-.07727.49756-.11658.74609-.19617,1.24365-.2085-.00684-.31274-.0105-.52124-.0188.02588-.65405.0387-.9812.06458-1.6355,2.05286.08105,3.08105.08301,5.13416.01025.02319.6543.03479.98169.05798,1.63599-.2085.00732-.31274.01074-.52136.01636-.07751-.49756-.11572-.74634-.19104-1.24438-.59351.01538-.89026.01978-1.48389.02222.0072,1.70483.01074,2.55737.01794,4.26196.00317.74243.11475.75073.29199.74927.21582-.00171.32385-.00293.53967-.00635.00244.15503.00366.23267.00598.3877-1.03674.01611-1.55542.01489-2.59216-.00513Z"/><path class="cls-6" d="m151.61783,76.39778c-.01428-.1543-.02148-.23145-.03577-.38599.28955-.02686.4342-.04102.72351-.07056-.25037-.43262-.37402-.64941-.61829-1.08398-1.16174.11084-1.74365.15479-2.90808.21924-.17993.46655-.27161.69946-.45801,1.16479.29028-.01392.4353-.02173.72546-.03857.00891.15503.01343.23242.02246.38721-.80396.04663-1.20618.06445-2.01074.08936-.00488-.15479-.0072-.23242-.01208-.38745.27917-.00854.41882-.01367.69788-.0249.88782-2.198,1.29602-3.30396,2.04016-5.5249.22058-.01636.33069-.0249.55115-.04272,1.03674,2.00146,1.58777,2.99292,2.75378,4.95288.10486.18359.33765.16528.43994.15308.14807-.01758.22217-.02661.37012-.04517.01917.15405.02881.23096.04797.38477-.93054.11597-1.39648.1665-2.32947.25293Zm-1.64001-4.69775c-.40466,1.20557-.61755,1.80664-1.06421,3.00586,1.03125-.05908,1.54651-.0979,2.57568-.19409-.62524-1.11816-.92749-1.68066-1.51147-2.81177Z"/><path class="cls-6" d="m159.98013,75.14045c-2.05286-1.45361-3.03174-2.21704-4.88904-3.80273.25012,1.66943.37512,2.50415.62524,4.17334.32861-.04907.4928-.07471.82092-.12744.02466.15308.03711.22949.06177.38257-.90454.146-1.35767.21167-2.26538.32959-.0199-.15381-.02991-.23071-.04993-.38452.32935-.04272.4939-.06494.82288-.11157l-.59631-4.21997c-.10388-.73486-.20825-.729-.37183-.70654-.19995.02734-.30005.04077-.50024.06689-.02002-.15381-.03003-.23071-.04993-.38452.55566-.07227.83337-.11108,1.38782-.19458,1.74792,1.51855,2.66772,2.25146,4.59424,3.65137-.32617-1.57324-.48926-2.36011-.81531-3.93335-.30408.06299-.45618.09375-.76074.15332-.02979-.15234-.04468-.22827-.07446-.38062.83032-.16235,1.24463-.25,2.07092-.43823.03442.15112.05164.22681.08606.37793-.30322.06909-.45496.10278-.75879.16846.45605,2.11157.6842,3.16748,1.14026,5.27905-.19116.04126-.28674.06177-.47815.10156Z"/><path class="cls-6" d="m165.18204,73.96101c-1.69165.48242-3.6554-.1228-4.10437-2.03687-.41235-1.75806.87634-3.25513,2.49072-3.71631.56055-.16016,1.1698-.18408,1.77673-.06494-.03003-.17798-.04504-.26709-.07532-.44507.17957-.0564.26929-.08496.44861-.14258.2262.70361.33923,1.05542.56543,1.75903-.17725.05713-.26587.08521-.44336.14111-.3114-.66284-.97534-1.26001-2.10181-.93677-1.16833.33521-2.09619,1.62817-1.71082,3.17578.3772,1.5144,1.75659,2.23706,3.16724,1.83203.55139-.15845,1.10571-.48242,1.58862-1.00562.13184.08228.198.12329.33044.20483-.4314.59814-1.15894,1.01465-1.93213,1.23535Z"/><path class="cls-6" d="m169.85501,72.35164c-.05237-.146-.07849-.21899-.13086-.36499.38403-.1377.57568-.20801.95825-.35107-.31348-.83789-.47034-1.25684-.78381-2.09473-1.07788-.70312-1.60547-1.0647-2.6366-1.80566-.13843-.10425-.26843-.104-.42651-.05054-.13989.04712-.20996.0708-.3501.11719-.04883-.14722-.07324-.2207-.12219-.36792.79956-.26538,1.19788-.40454,1.99084-.69531.05347.14575.08008.21851.13342.36401-.23169.08496-.34766.12695-.57996.20972.94312.66382,1.42444.98804,2.40588,1.62012.30664-1.12646.44824-1.68994.70789-2.81543-.22571.09302-.33887.13892-.56531.22998-.05774-.14404-.08667-.21606-.14441-.35986.67505-.27124,1.01135-.41138,1.68079-.70093.06165.14233.09241.21338.15405.35571-.13013.0564-.19519.08423-.32544.13989-.1792.07642-.26892.15967-.30115.31079-.28027,1.24902-.43457,1.87427-.77222,3.12451.21521.55371.32288.83081.53809,1.38452.26892.69189.37781.65894.54517.59326.27161-.10693.4071-.16089.67786-.27051.05823.1438.08728.21558.14551.35938-1.11304.45044-1.67322.66406-2.79919,1.06787Z"/><path class="cls-6" d="m117.28714,81.21589c.05103-.14648.07654-.21973.12744-.36621.31226.10889.46863.16235.78174.26807-.0752-.50659-.11108-.75952-.17981-1.26562-1.25732-.43384-1.88269-.66382-3.12598-1.15015-.38501.33887-.57898.50732-.96973.84204.30859.12329.46313.18408.77258.3042-.05615.14453-.08411.2168-.14026.36157-.85706-.33252-1.28394-.50488-2.13391-.86206.06006-.14282.09009-.21436.15015-.35742.29504.12402.44287.1853.73877.30615,1.8512-1.57715,2.74622-2.38892,4.47229-4.05371.23853.08838.35791.13184.59692.21826.23547,2.29517.38672,3.44702.75684,5.75317.03003.21411.2793.30371.39075.33936.16125.05127.24194.07666.40344.1272-.04626.14819-.06946.22217-.11584.37012-1.01404-.31738-1.51929-.48438-2.52539-.83496Zm.28882-5.01489c-.93677.90332-1.41443,1.34888-2.38806,2.22681,1.10242.42847,1.65662.63257,2.77002,1.01953-.17407-1.30054-.25049-1.94995-.38196-3.24634Z"/><path class="cls-6" d="m126.48001,83.83894c-1.47388-2.21948-2.15454-3.34668-3.4021-5.62012-.46375,1.62305-.69568,2.43481-1.15942,4.05786.36145.10327.54236.15381.90466.25293-.04089.14966-.0614.22437-.10229.37402-.99805-.27295-1.49548-.41748-2.48657-.72192.04553-.14844.06824-.22241.11377-.37061.35986.11035.54004.16479.90076.271.48218-1.63525.72314-2.45288,1.20532-4.08813.20984-.71191.09827-.75391-.08228-.80786-.22095-.06616-.3313-.09961-.55176-.16724.04553-.14819.06836-.22241.11389-.37061.61243.18823.91943.27905,1.53479.45435,1.16577,2.16382,1.80029,3.2373,3.17212,5.354.35437-1.56738.53162-2.35083.88599-3.91821-.34338-.07764-.51489-.11743-.85754-.19897.03601-.15088.05396-.22632.08984-.3772.93457.22241,1.40332.32642,2.34277.51953-.03125.1521-.04675.22803-.078.37988-.34448-.0708-.5166-.10718-.86035-.18188-.45898,2.11084-.68835,3.1665-1.14734,5.27759-.2146-.04663-.3219-.07031-.53625-.11841Z"/><path class="cls-6" d="m131.91812,84.87044c-1.32043-.20532-1.97925-.32129-3.2926-.57983.03003-.1521.04492-.22827.07495-.38037.36694.07227.55066.10718.91833.17529.31042-1.67627.4657-2.5144.77612-4.19092.13513-.72974.02051-.75977-.16357-.79468-.2251-.04248-.33765-.06421-.56262-.10864.03003-.1521.04492-.22827.07495-.38037,1.28027.25195,1.92261.3645,3.21021.56226,2.14233.3291,3.35645,1.86646,3.19971,3.3269-.15674,1.45947-1.61108,2.77856-4.23547,2.37036Zm.81116-5.3396c-.49487-.07715-.74207-.11768-1.23596-.20288-.34045,1.97632-.51074,2.96436-.8512,4.94043.49243.08496.73901.12549,1.23242.20288,2.05164.32153,3.03601-.8313,3.18909-2.0957.15222-1.25659-.47388-2.55493-2.33435-2.84473Z"/><path class="cls-6" d="m141.19913,85.78743c.00659-.15503.00989-.23242.01648-.38745.37207.01587.55823.02271.93054.03442.06299-2.00439.09448-3.00635.15735-5.01074-.672-.021-1.00806-.03516-1.67957-.0708-.09717.49536-.14636.74268-.24573,1.23779-.23547-.01318-.35315-.02002-.58862-.03491.04102-.65332.0614-.98022.10242-1.63354,2.32458.14575,3.48975.17505,5.81763.14648.00806.65479.01208.98218.02014,1.63672-.23584.00293-.35376.00391-.58948.00513-.07434-.49927-.11096-.74902-.18298-1.24854-.67224.00171-1.00854-.00098-1.68079-.01367-.03223,1.70459-.04846,2.55664-.08069,4.26123-.01416.74219.11096.75342.31018.75635.24255.00366.36389.00513.60645.00708-.00122.15503-.00183.23267-.00305.3877-1.16443-.00903-1.7467-.02368-2.91028-.07324Z"/><path class="cls-6" d="m150.34024,82.88533c.00085.01343.00134.02002.00232.0332.59094.44165,1.26416,1.25977,1.8678,1.91602.10449.10938.28809.27979.46545.26294.2085-.02002.31262-.03027.521-.05151.01575.1543.02368.2312.03943.38574-.6322.06445-.94849.09375-1.58142.146-.59778-.7207-1.46692-1.81567-2.28967-2.479-.33765.01929-.50659.02808-.84436.0437.02783.59717.04175.89575.06958,1.49268.03455.74146.16077.74463.35901.73462.24243-.01221.36365-.0188.60596-.03296.00891.15503.01343.23242.02234.38721-1.16296.06714-1.745.09058-2.9093.11743-.00354-.15527-.00525-.23267-.00879-.3877.37231-.00854.55835-.01392.93066-.02661-.05811-1.70386-.08716-2.55566-.14526-4.25952-.02527-.74194-.14331-.74658-.32983-.74072-.22815.00684-.34216.00977-.57031.01514-.00354-.15527-.00537-.23267-.00891-.3877,1.10327-.02539,1.65479-.04761,2.75684-.11206,1.81665-.1062,2.41455.53198,2.48267,1.29736.08362.94092-.71582,1.44336-1.43518,1.64575Zm-1.13281-2.5498c-.32617.01855-.48926.02686-.81543.04224.0448.96094.06714,1.44165.11194,2.40283.328-.01538.49207-.02393.82007-.04248,1.00195-.05688,1.53345-.68652,1.48584-1.30884-.04761-.62207-.48328-1.15771-1.60242-1.09375Z"/><path class="cls-6" d="m157.51822,84.98543c-1.67932.25903-3.03296-.32812-3.20544-1.78687-.11963-1.01221-.17944-1.51807-.29907-2.53027-.08704-.7373-.21484-.73071-.41064-.7085-.21924.0249-.32886.03711-.5481.06055-.01648-.1543-.02466-.2312-.04114-.3855,1.00122-.10693,1.50134-.1687,2.49951-.30811.02148.15356.03223.23047.05371.38403-.26941.0376-.4043.05591-.67395.09106.17175,1.31201.25757,1.96802.4292,3.28003.14355,1.09619,1.09387,1.57153,2.26501,1.38867,1.15027-.17944,1.96497-.92261,1.76526-2.0188-.23718-1.30176-.35583-1.95264-.59302-3.25439-.26807.04883-.40222.07275-.67053.11914-.02649-.15283-.03979-.22925-.06616-.38208.79688-.13794,1.1947-.21216,1.98865-.37109.0304.1521.04565.22803.07605.38013-.26709.05347-.40076.07983-.66833.13086.24768,1.29614.37158,1.94434.61926,3.24048.27576,1.44263-.84155,2.41162-2.52026,2.67065Z"/><path class="cls-6" d="m163.66348,83.69539c-.03503-.15112-.05261-.22656-.08777-.37769.36499-.08496.54736-.12842.91162-.21729-.47595-1.948-.71399-2.92212-1.18994-4.86987-.65759.16064-.98706.2373-1.64722.38354.03857.50342.05725.75488.09363,1.25854-.23169.05078-.34753.07568-.57935.12476-.13538-.64062-.20312-.96094-.3385-1.60156,2.28955-.48389,3.42822-.76929,5.68506-1.42749.18323.62866.2749.94287.45813,1.57153-.22864.06665-.34302.09961-.5719.16455-.20605-.46118-.30859-.69165-.51245-1.15332-.65308.18335-.98047.27173-1.6366.44067.42542,1.65088.63818,2.47632,1.06348,4.1272.1853.71875.30969.69604.50391.64502.23657-.06177.35474-.09326.59094-.15698.04041.14966.06067.22461.10095.37427-1.13367.30591-1.70264.44873-2.84399.71411Z"/><path class="cls-6" d="m173.75272,80.66755c-.05383-.14526-.08081-.21802-.13464-.36353.35461-.13135.53174-.198.88525-.3335l-.82764-2.15942c-1.44043.552-2.16577.8103-3.62476,1.29126.28955.87842.43433,1.31787.72388,2.19629.35803-.11792.53687-.17798.89392-.30029.05017.14673.07532.22021.12549.36694-1.11646.38208-1.67737.56299-2.80347.90454-.04492-.14844-.0675-.22266-.11243-.37109.36011-.10913.53992-.16479.89905-.27832-.51306-1.62573-.76965-2.43848-1.28284-4.06421-.22339-.70776-.3396-.68018-.51965-.62427-.22034.0686-.33057.10254-.55127.16943-.04504-.14844-.0675-.22241-.11255-.37085,1.0481-.31787,1.57007-.48633,2.60913-.84204.05029.14673.07532.22021.12561.36694-.33557.11475-.50354.17114-.84009.28223.2926.8877.43896,1.33179.73157,2.21948,1.45239-.47876,2.17444-.73584,3.6084-1.2854-.33447-.8728-.50171-1.30933-.8363-2.18213-.33215.1272-.49854.18994-.83179.31323-.05383-.14551-.08081-.21802-.13464-.36353,1.0321-.38232,1.54578-.58276,2.56714-1.00269.05896.14355.0885.21533.14746.35864-.32983.1355-.495.20239-.82593.33398.63013,1.58423.94519,2.37622,1.57544,3.96021.27429.6897.39612.65088.58423.5752.22925-.09229.34363-.13892.57239-.23291.05896.14355.08838.21509.14734.35864-1.09741.45117-1.64929.6665-2.7583,1.07715Z"/></g></g></svg>