<?xml version="1.0" encoding="UTF-8"?><svg xmlns="http://www.w3.org/2000/svg" viewBox="0 0 97.41157 102.5235"><defs><style>.cls-1,.cls-2{mix-blend-mode:multiply;}.cls-1,.cls-2,.cls-3,.cls-4,.cls-5,.cls-6{stroke-width:0px;}.cls-1,.cls-3{fill:#f5989e;}.cls-2,.cls-6{fill:#3b7e91;}.cls-7{isolation:isolate;}.cls-4{fill:#f7e288;}.cls-5{fill:#399a75;}</style></defs><g class="cls-7"><g id="Layer_1"><path class="cls-5" d="m49.21077,33.65989l-1.73539-5.31243c-3.11663-4.24995-8.35823-5.94992-8.35823-5.94992-3.82495,2.69163-3.11663,9.20821-3.11663,9.20821-1.69998-1.41665-5.09993-1.13332-5.09993-1.13332-1.55831,5.09993,1.13332,7.93323,1.13332,7.93323l-2.69163-1.55831-5.2416,3.39996c3.11663,5.38326,10.62486,9.49154,10.62486,9.49154-5.80826-3.54162-13.17483-.42499-13.17483-.42499,1.98331,8.92488,10.19987,8.35823,10.19987,8.35823l13.88315-1.69998,6.09159-16.00813-2.51455-6.30409Z"/><path class="cls-6" d="m45.11694,40.93554c-5.026-5.13331-6.01526-13.26414-6.05494-13.60773l.74745-.08636c.00955.08158,1.00285,8.2216,5.84548,13.16786l-.53799.52623Z"/><path class="cls-6" d="m37.80706,51.10661c-2.97694-8.21204-11.96473-10.36547-12.05513-10.38641l.16831-.73349c.09444.02168,9.47948,2.27028,12.59459,10.8634l-.70776.2565Z"/><path class="cls-6" d="m27.60512,54.92508c-1.3108-3.83096-4.00919-4.96868-4.03602-4.9797l.28369-.69674c.12384.05034,3.04382,1.28103,4.4645,5.43317l-.71217.24327Z"/><path class="cls-4" d="m45.49206,47.36597l-9.88112-6.90616,4.88744-1.16873-1.06249-4.99369,9.88112,5.94992-4.24995-11.3686s3.39996-1.48748,5.09993.2125c0,0,1.48748-2.76246,4.78119-2.54997l2.23122,9.03113,4.46244-3.29371v4.78119l4.24995,2.23122-6.05617,4.56869,6.19784,2.4083-4.8166,6.83533-11.04986-1.27498-4.67494-4.46244Z"/><circle class="cls-1" cx="54.23987" cy="42.26603" r="3.32912"/><path class="cls-5" d="m50.45033,56.8221l3.01038-6.16242s2.44372-2.54997,4.24995-2.76246,1.38123,1.38123,2.12497,1.91248,1.06249-1.27498,3.18746-3.29371,3.01038-.24791,3.01038-.24791c.35416,1.34582-1.13332,2.33747.14166,2.54997s3.54162-2.76246,5.59576-1.20415,0,2.19581.42499,2.8333,4.60411.49583,3.47079,3.25829c-1.13332,2.76246-3.89578,1.27498-4.17911,1.91248s1.62915,1.06249.70832,2.6208c0,0-1.69998,2.90413-6.79991,1.27498,0,0-1.41665-.56666-1.34582.07083s1.62915,1.27498.56666,2.05414c-1.06249.77916-2.90413-.14166-2.90413-.14166l.77916,4.46244-2.69163.2125.35416,3.25829-1.98331,1.20415s1.13332,2.6208,1.06249,5.17077l-2.76246-.28333.07083,4.60411-5.09993-4.03745-2.8333,3.11663-2.47913-5.2416.86231-12.18732.20018-2.82915,3.25829-2.12497Z"/><path class="cls-6" d="m60.01048,61.10092c-4.39541-1.82233-6.54185-4.46339-6.63115-4.57474l-.25687-.32154.34286-.22747c9.20056-6.09831,15.1934-3.64539,15.44328-3.53845l-.29545.69196c-.05733-.02352-5.73671-2.31658-14.36804,3.23638.69894.74194,2.7142,2.6543,6.05347,4.03859l-.2881.69527Z"/><path class="cls-6" d="m57.86734,70.85674c-.01543-.02131-1.57759-2.1288-3.54139-2.61975l.18227-.72981c2.23133.55746,3.89711,2.80974,3.96693,2.90529l-.60781.44428Z"/><path class="cls-3" d="m54.81732,54.64961c-.35962-.50694-1.03923-.73151-1.90464-.70211,1.31929-2.77308.96353-5.88351-1.09288-7.60809-2.54254-2.13229-6.71953-1.33794-9.3295,1.77423-.90919,1.08411-1.50097,2.30652-1.7882,3.52945-.56229-.81167-1.27506-1.55177-2.139-2.16633-3.65793-2.60202-8.5396-2.01737-10.90355,1.30583-2.3639,3.32325-1.31493,8.1266,2.343,10.72863.13794.09812.28071.18287.42191.27193-1.2124.8203-1.88576,1.77731-1.69766,2.6418.27671,1.27161,2.32536,1.95457,4.9311,1.79757-1.07405,1.41994-1.46762,2.78838-.88493,3.60974.90758,1.27933,3.84699.76481,6.69165-1.12104.79444,3.52329,4.02467,5.804,7.23317,5.09716,3.2192-.70923,5.19605-4.15673,4.41539-7.70024-.048-.21796-.10579-.43096-.17184-.63909,1.50809-.58319,2.58154-1.63611,2.80845-2.97795.17565-1.03895-.18682-2.08098-.92958-2.98498,1.8735-1.81985,2.75035-3.79477,1.99711-4.8565Z"/><ellipse class="cls-2" cx="43.45985" cy="65.84372" rx=".7162" ry="2.35881"/><ellipse class="cls-2" cx="45.79732" cy="64.99373" rx=".7162" ry="2.35881" transform="translate(-26.36119 31.60617) rotate(-30)"/><ellipse class="cls-2" cx="36.66043" cy="61.88824" rx="2.35881" ry=".7162" transform="translate(-19.48681 16.92572) rotate(-20.67135)"/><ellipse class="cls-2" cx="38.28084" cy="63.77518" rx="2.35881" ry=".7162" transform="translate(-35.31191 52.96766) rotate(-50.67135)"/><path class="cls-2" d="m40.66972,57.46435c-.80147-2.60248-.4509-4.65926-.43546-4.74562l.74084.13119c-.00331.01948-.33147,1.97373.41415,4.39247l-.71952.22196Z"/><path class="cls-2" d="m41.81382,58.23399c-.74428,0-1.36702.49173-1.58002,1.16555-6.77819-.41332-9.07346.96959-9.82288,1.76045l.54024.54024c.54543-.56624,2.57832-1.9531,9.22339-1.55071.07933.52044.39752.95691.84148,1.20143-.64823.89182-1.37194,2.49178-1.37194,5.19307h.7526c0-2.79885.82972-4.28011,1.41746-4.98094.9192-.00018,1.66422-.74529,1.66422-1.66454s-.74525-1.66454-1.66454-1.66454Z"/><path class="cls-2" d="m52.43362,53.60114c-5.36973.32131-8.68494,4.29642-8.82702,4.47065l.58356.47552c.03238-.03987,3.22095-3.86514,8.24346-4.19206v-.75411Z"/></g></g></svg>