<?xml version="1.0" encoding="UTF-8"?><svg xmlns="http://www.w3.org/2000/svg" viewBox="0 0 97.41157 102.5235"><defs><style>.cls-1{mix-blend-mode:multiply;}.cls-1,.cls-2,.cls-3,.cls-4{stroke-width:0px;}.cls-1,.cls-4{fill:#399a75;}.cls-5{fill:none;stroke:#f5989e;stroke-miterlimit:10;stroke-width:.72244px;}.cls-6{isolation:isolate;}.cls-2{fill:#f5989e;}.cls-3{fill:#f7e288;}</style></defs><g class="cls-6"><g id="Layer_1"><ellipse class="cls-2" cx="16.89343" cy="40.35685" rx="2.44778" ry="4.35161" transform="translate(-25.6936 30.33644) rotate(-54.04532)"/><ellipse class="cls-2" cx="21.90001" cy="38.50189" rx="2.44778" ry="4.35161" transform="translate(-10.07081 7.84455) rotate(-16.57009)"/><polygon class="cls-4" points="48.69546 44.53157 47.36958 32.08869 50.32731 30.15086 51.44921 33.31258 54.9169 27.39711 56.24279 30.66081 58.79256 26.58118 60.42441 30.45683 63.68812 29.13095 61.95427 33.10859 64.09608 34.84244 59.71048 36.06633 54.71292 42.08379 48.69546 44.53157"/><ellipse class="cls-2" cx="37.40847" cy="34.1625" rx="2.44778" ry="4.35161" transform="translate(-10.43672 17.50994) rotate(-23.21274)"/><ellipse class="cls-2" cx="23.8559" cy="27.60002" rx="2.44778" ry="4.35161" transform="translate(-8.94726 11.637) rotate(-23.21274)"/><ellipse class="cls-2" cx="47.44182" cy="30.64222" rx="4.35161" ry="2.44778" transform="translate(-5.82842 49.40264) rotate(-52.25899)"/><line class="cls-5" x1="25.03358" y1="30.25285" x2="33.60081" y2="45.04153"/><line class="cls-5" x1="38.49637" y1="36.78027" x2="41.96406" y2="44.93954"/><line class="cls-5" x1="45.32976" y1="32.80262" x2="35.43665" y2="47.38732"/><ellipse class="cls-4" cx="16.54217" cy="55.74533" rx="1.97492" ry="7.25557" transform="translate(-36.29348 31.46407) rotate(-48.79027)"/><ellipse class="cls-4" cx="14.57082" cy="64.194" rx="7.25557" ry="1.97492" transform="translate(-15.00578 5.38581) rotate(-13.91098)"/><ellipse class="cls-4" cx="22.46555" cy="67.38812" rx="7.25557" ry="1.97492" transform="translate(-47.12705 53.14979) rotate(-60)"/><path class="cls-3" d="m20.00203,39.87399v23.93386s9.79112,7.34334,29.91732,2.17581,27.19757-1.90383,27.19757-1.90383v-24.48457s-14.72895-2.09522-29.37337,2.99849c-12.51088,4.35161-27.74152-2.71976-27.74152-2.71976Z"/><path class="cls-4" d="m61.44432,66.76558c-3.15401-4.15001-.03905-10.01662,7.8533-9.79112,3.56968.10199,4.79357-4.28362,8.9752-1.42787,0,0,3.05973,2.03982.71394,7.54733-2.34579,5.50751-11.83094,6.52742-11.83094,6.52742,0,0-3.77366-.30597-5.71149-2.85574Z"/><circle class="cls-4" cx="44.34385" cy="67.7515" r="5.5755"/><circle class="cls-2" cx="51.19308" cy="63.2639" r="4.62359"/><circle class="cls-3" cx="54.81491" cy="74.68688" r="4.35161"/><circle class="cls-2" cx="72.94437" cy="68.61726" r="9.79112"/><circle class="cls-3" cx="84.18829" cy="71.15119" r="5.71149"/><circle class="cls-1" cx="71.1231" cy="64.40944" r="1.41751"/></g></g></svg>