<?xml version="1.0" encoding="UTF-8"?><svg xmlns="http://www.w3.org/2000/svg" viewBox="0 0 97.41157 102.5235"><defs><style>.cls-1,.cls-2,.cls-3{mix-blend-mode:multiply;}.cls-1,.cls-2,.cls-4,.cls-5,.cls-6{stroke-width:0px;}.cls-1,.cls-4{fill:#f5989e;}.cls-2,.cls-6{fill:#399a75;}.cls-3{fill:none;stroke:#f5989e;stroke-miterlimit:10;stroke-width:.74516px;}.cls-7{isolation:isolate;}.cls-5{fill:#f7e288;}</style></defs><g class="cls-7"><g id="Layer_1"><polyline class="cls-5" points="83.51204 31.08114 96.69396 44.54658 96.69396 79.3323 14.21813 79.3323 14.21813 31.08114 83.22851 31.08114"/><polygon class="cls-1" points="96.69396 44.54617 83.51204 44.54617 83.51204 31.08114 96.69396 44.54617"/><path class="cls-6" d="m23.65096,50.44141c0-2.72867-2.25776-4.94064-5.04283-4.94064-.64328,0-1.25623.12257-1.82192.3377-1.25445-1.47558-3.91518-3.29273-8.2839-1.50228-6.41709,2.62993-7.7847,9.25746-7.7847,9.25746,3.36636-1.36757,4.20794-1.36757,10.09908-1.26237,1.17914.02106,2.15243-.15727,2.96749-.45053.15464.49811.38841.96169.68535,1.37939-.77395.52631-1.33182,1.2928-1.51747,2.21574-.27302,1.35733.32755,2.71248,1.44902,3.6291-.02811.10497-.05653.20967-.0815.31746-.55932,2.41413-.09637,4.58348,1.0341,4.8454,1.13043.26192,2.50027-1.48281,3.05964-3.89694.01624-.07018.02865-.13922.04321-.20894,1.65096-.28134,2.98487-1.38312,3.29327-2.91633.18261-.90766-.02438-1.81551-.51662-2.59164,1.44816-.86814,2.41777-2.42741,2.41777-4.21258Z"/><path class="cls-4" d="m25.07019,33.58741c1.32181-1.76839.9642-4.27016-.79869-5.58783-1.29152-.96533-2.97559-1.019-4.30541-.2878-.56137-2.5664-3.38906-4.52058-6.80172-4.52058-3.81621,0-6.90983,2.44123-6.90983,5.45257,0,.54413.10406,1.06867.29208,1.5645-.16319.03761-.32601.07868-.48192.15013-1.57373.72142-2.10363,2.93316-1.18364,4.94014.39464.86091.99685,1.52916,1.67456,1.97196.01014.05162.01796.10383.02997.15495-1.12074.63369-1.87045,1.74447-1.87045,3.01834,0,1.70376,1.33414,3.12336,3.11676,3.4832-.25979,1.35988.16273,2.74273,1.24977,3.55524,1.58228,1.18264,3.93646.70782,5.25823-1.06057.12753-.17064.22827-.35111.32742-.53172,2.59823,1.10359,6.05824-.06954,8.22322-2.96604,2.00594-2.68374,2.27873-6.01535.88119-8.22404.49256-.26752.94064-.63378,1.29843-1.11246Z"/><path class="cls-2" d="m6.54663,30.20827c-.16319.03761-.32601.07868-.48192.15013-1.57373.72142-2.10363,2.93316-1.18364,4.94014.39464.86091.99685,1.52916,1.67456,1.97196,0,0,3.24415,3.59412,7.17157,2.08627,3.92742-1.50785,2.66504-5.43527,2.66504-5.43527,0,0-.49093-1.33252-1.75331-.94679-1.26239.38573-2.84037.94679-3.75209.1052s-1.77236-2.93799-4.34021-2.87165Z"/><ellipse class="cls-2" cx="11.20243" cy="26.0316" rx="2.9105" ry="2.06891" transform="translate(-16.94281 22.71739) rotate(-60)"/><ellipse class="cls-2" cx="20.77678" cy="32.71236" rx=".50458" ry="1.60617" transform="translate(-13.94758 49.91677) rotate(-83.93534)"/><line class="cls-3" x1="15.97144" y1="60.39653" x2="20.03913" y2="45.80896"/></g></g></svg>