<?xml version="1.0" encoding="UTF-8"?><svg xmlns="http://www.w3.org/2000/svg" viewBox="0 0 97.41157 102.5235"><defs><style>.cls-1{fill:#f5989e;mix-blend-mode:multiply;}.cls-1,.cls-2,.cls-3,.cls-4{stroke-width:0px;}.cls-5{isolation:isolate;}.cls-2{fill:#f7e288;}.cls-3{fill:#399a75;}.cls-4{fill:#3b7e91;}</style></defs><g class="cls-5"><g id="Layer_1"><path class="cls-3" d="m22.02264,65.87464c-.40093-.14752-9.81417-3.84419-9.12869-24.30416-.00034-.04534.01996-5.80926,1.76579-15.99255l.68277.11774c-1.73466,10.11766-1.75597,15.83015-1.75597,15.88632-.34916,10.43502,2.03578,16.30924,4.09829,19.40232,2.2222,3.33195,4.55437,4.23125,4.57771,4.24005l-.23988.65029Z"/><path class="cls-3" d="m23.19498,63.6653c-6.92713-5.64077-5.03311-16.26796-5.01315-16.37488l.68141.12722c-.01929.10285-1.83548,10.33216,4.76955,15.71038l-.43781.53728Z"/><rect class="cls-3" x="55.74038" y="29.4519" width=".69292" height="13.10856"/><rect class="cls-3" x="60.53361" y="18.10472" width=".69292" height="22.79247"/><rect class="cls-3" x="66.89199" y="24.46344" width=".69292" height="17.41222"/><ellipse class="cls-3" cx="15.35598" cy="24.01154" rx="3.3749" ry="1.41844" transform="translate(-11.24918 34.23534) rotate(-78.42078)"/><ellipse class="cls-3" cx="67.23859" cy="22.70239" rx="1.41844" ry="3.3749"/><path class="cls-4" d="m82.98813,64.30987c-.26086-5.4781-31.69473-4.82595-31.69473-4.82595,0,0-32.47731-.95271-32.47731,6.78241,0,5.4781,7.1737,3.7825,7.82586,6.52155.51557,2.16541-1.32218,3.99869,0,7.30413.52172,1.30431,3.24571,3.26742,7.82586,3.39121,4.82595.13043,6.91284-2.73905,10.56491-2.60862,4.95322.1769,11.76078,6.44534,17.08646,3.7825,4.43465-2.21733.78653-3.93305,5.60853-6.78241,2.86948-1.6956,5.73896.26086,8.73887-2.0869,1.89397-1.48224.65215-3.7825,2.86948-6.26069,2.21733-2.47819,3.80729-1.95755,3.65207-5.21724Z"/><path class="cls-2" d="m33.42436,17.22429c7.29814-.39449,10.43448,6.65198,8.86931,13.17353s-1.95646,13.95611,2.99991,14.08654c4.95638.13043,7.69543-6.13026,16.56473-5.34767s9.13017,4.95638,13.43439,5.99982,9.2606,1.17388,9.2606,1.17388l-11.99965,16.82559h-39.12929s-7.1737-4.04336-7.1737-13.0431c0-12.39094,10.82577-16.82559,10.82577-23.47757,0-.68476-.13043-4.69551-4.04336-4.69551s-5.34767,5.08681-5.34767,5.08681c0,0,1.43474,2.34776.65215,5.08681-.78259,2.73905-4.56508,8.99974-4.56508,8.99974l-2.34776-5.21724s-1.82603-1.17388-1.56517-4.56508,3.91293-13.56482,13.56482-14.08654Z"/><polygon class="cls-1" points="58.34659 54.74942 41.06531 52.00076 41.17425 51.31597 58.32697 54.04432 75.06759 50.4302 73.08391 45.86128 73.71931 45.5852 76.03929 50.92958 58.34659 54.74942"/><path class="cls-1" d="m26.90958,35.43917c-1.36867,2.72692-3.13711,5.65399-3.13711,5.65399l-2.34776-5.21724,1.2717-5.34767.97823.13043-.26086,2.38037,3.49579,2.40013Z"/></g></g></svg>