<?xml version="1.0" encoding="UTF-8"?><svg xmlns="http://www.w3.org/2000/svg" viewBox="0 0 288 83.5763"><defs><style>.cls-1{fill:#399a75;mix-blend-mode:multiply;}.cls-1,.cls-2{stroke-width:0px;}.cls-3{fill:#3b7e91;font-family:Odile-Initials, Odile;font-size:8.66174px;font-style:italic;}.cls-4{isolation:isolate;}.cls-2{fill:#f5989e;}</style></defs><g class="cls-4"><g id="Layer_1"><path class="cls-2" d="m142.51046,30.10367c-27.85337,0-44.83714,12.36418-44.83714,12.36418,7.60873,12.63592,6.3859,18.88595,6.3859,18.88595,0,0-.95109,14.26636-14.94571,12.22831s-23.36966,5.57067-23.36966,5.57067c0,0,2.17392-7.7446,8.28808-12.09244s11.41309-.27174,17.11963.95109c5.70654,1.22283,8.9653-4.75545,8.01634-14.80984-.35839-3.79718-4.0761-4.21197-5.57067-5.16306s-2.17392-2.44566-2.17392-2.44566l-8.55982-15.21745c9.23917-18.47834,40.21756-24.18488,59.78285-24.72836h.44852c19.5653.54348,50.54368,6.25003,59.78285,24.72836l-8.55982,15.21745s-.67935,1.49457-2.17392,2.44566-4.92221,1.40454-5.57067,5.16306c-1.26587,7.33699,2.30979,16.03267,8.01634,14.80984s11.00548-5.29893,17.11963-.95109c6.11416,4.34784,8.28808,12.09244,8.28808,12.09244,0,0-9.37504-7.60873-23.36966-5.57067s-14.94571-12.22831-14.94571-12.22831c0,0-1.22283-6.25003,6.3859-18.88595,0,0-16.98376-12.36418-44.83714-12.36418h-.72026Z"/><path class="cls-1" d="m103.36076,55.42646c-.66102-2.9518-1.98586-6.81135-5.68744-12.95861,0,0-3.59743,1.92628-2.46477,4.34784.92349,1.97436,2.85327,2.90422,4.89132,4.43276,1.33245.99934,2.19091,2.089,3.26088,4.17801Z"/><path class="cls-1" d="m182.33544,55.42646c.66102-2.9518,1.98586-6.81135,5.68744-12.95861,0,0,3.59743,1.92628,2.46477,4.34784-.92349,1.97436-2.85327,2.90422-4.89132,4.43276-1.33245.99934-2.19091,2.089-3.26088,4.17801Z"/><text class="cls-3" transform="translate(93.63389 35.91591) rotate(-41.08545)"><tspan x="0" y="0">C</tspan></text><text class="cls-3" transform="translate(97.7462 32.38271) rotate(-32.67973)"><tspan x="0" y="0">o</tspan></text><text class="cls-3" transform="translate(101.38194 29.93838) rotate(-25.28128)"><tspan x="0" y="0">m</tspan></text><text class="cls-3" transform="translate(108.22129 26.79677) rotate(-19.45831)"><tspan x="0" y="0">p</tspan></text><text class="cls-3" transform="translate(112.62657 25.26943) rotate(-16.54023)"><tspan x="0" y="0">l</tspan></text><text class="cls-3" transform="translate(115.03135 24.55459) rotate(-14.66405)"><tspan x="0" y="0">i</tspan></text><text class="cls-3" transform="translate(117.49278 23.83388) rotate(-11.28341)"><tspan x="0" y="0">m</tspan></text><text class="cls-3" transform="translate(124.94688 22.40224) rotate(-7.9191)"><tspan x="0" y="0">e</tspan></text><text class="cls-3" transform="translate(129.02403 21.82509) rotate(-5.60475)"><tspan x="0" y="0">n</tspan></text><text class="cls-3" transform="translate(134.08067 21.34267) rotate(-3.64526)"><tspan x="0" y="0">t</tspan></text><text class="cls-3" transform="translate(137.28965 21.13173) rotate(-2.14109)"><tspan x="0" y="0">s</tspan></text><text class="cls-3" transform="translate(141.43809 20.9872) rotate(-.90904)"><tspan x="0" y="0"> </tspan></text><text class="cls-3" transform="translate(143.57676 20.93252) rotate(.56419)"><tspan x="0" y="0">o</tspan></text><text class="cls-3" transform="translate(148.07872 20.99013) rotate(2.55787)"><tspan x="0" y="0">f</tspan></text><text class="cls-3" transform="translate(151.19004 21.13369) rotate(3.96074)"><tspan x="0" y="0"> </tspan></text><text class="cls-3" transform="translate(153.33262 21.27236) rotate(5.49683)"><tspan x="0" y="0">t</tspan></text><text class="cls-3" transform="translate(156.73448 21.58291) rotate(7.82867)"><tspan x="0" y="0">h</tspan></text><text class="cls-3" transform="translate(161.63975 22.26455) rotate(10.44358)"><tspan x="0" y="0">e</tspan></text><text class="cls-3" transform="translate(165.73838 23.03701) rotate(12.30588)"><tspan x="0" y="0"> </tspan></text><text class="cls-3" transform="translate(167.80723 23.46963) rotate(14.19893)"><tspan x="0" y="0">s</tspan></text><text class="cls-3" transform="translate(171.81944 24.48232) rotate(16.76359)"><tspan x="0" y="0">e</tspan></text><text class="cls-3" transform="translate(175.78965 25.66884) rotate(19.60794)"><tspan x="0" y="0">a</tspan></text><text class="cls-3" transform="translate(180.15587 27.22939) rotate(22.55772)"><tspan x="0" y="0">s</tspan></text><text class="cls-3" transform="translate(183.99571 28.81533) rotate(25.66709)"><tspan x="0" y="0">o</tspan></text><text class="cls-3" transform="translate(188.0128 30.72646) rotate(29.47219)"><tspan x="0" y="0">n</tspan></text><text class="cls-3" transform="translate(192.35753 33.2206) rotate(33.06434)"><tspan x="0" y="0">.</tspan></text></g></g></svg>