<?xml version="1.0" encoding="UTF-8"?><svg xmlns="http://www.w3.org/2000/svg" viewBox="0 0 288 83.5763"><defs><style>.cls-1{fill:#399a75;mix-blend-mode:multiply;}.cls-1,.cls-2{stroke-width:0px;}.cls-3{fill:#3b7e91;font-family:Odile-Regular, Odile;font-size:8.79071px;}.cls-4{isolation:isolate;}.cls-2{fill:#f5989e;}</style></defs><g class="cls-4"><g id="Layer_1"><path class="cls-2" d="m284.23733,41.17368c-19.85657,2.48209-15.55717-4.09064-29.37121-5.47206-12.4104-1.24102-16.13351,1.74895-16.13351,1.74895v-10.75566s-5.79153-5.37785-22.33871-5.79153c-16.48463-.41211-35.6433,9.84725-72.39388,10.33385-36.75059-.4866-55.9093-10.74596-72.39393-10.33385-16.54714.41367-22.33866,5.79153-22.33866,5.79153v10.75566s-3.72311-2.98997-16.13351-1.74895c-13.81404,1.38142-9.51464,7.95415-29.37125,5.47206,0,0,1.24107,6.2052,4.5505,9.10096,0,0-2.48209,4.96413-2.48209,12.41035,0,0,13.65142-8.27357,26.47549-8.68724,12.82407-.41367,24.40708,6.2052,32.68069,4.13678,8.27357-2.06841,9.72143-11.99668,8.89408-13.85826s-3.72311-2.89576-4.34362-5.58469c0,0,3.30944-.82735,11.58301,1.03423,8.19456,1.84374,33.84083,10.37829,62.46562,10.74229v.01337c.13834-.00098.27547-.00532.41367-.00671.1382.00139.27534.00572.41367.00671v-.01337c28.62475-.364,54.27106-8.89855,62.46562-10.74229,8.27357-1.86158,11.58301-1.03423,11.58301-1.03423-.62051,2.68893-3.51627,3.72311-4.34362,5.58469-.82739,1.86158.62051,11.78984,8.89408,13.85826,8.27361,2.06841,19.85662-4.55046,32.68069-4.13678,12.82407.41367,26.47549,8.68724,26.47549,8.68724,0-7.44622-2.48209-12.41035-2.48209-12.41035,3.30944-2.89576,4.55046-9.10096,4.55046-9.10096Z"/><path class="cls-1" d="m64.98724,58.13455c8.27359-2.0684,9.72147-11.9967,8.89411-13.85826s-3.72312-2.89576-4.34363-5.58467c0,0-18.04729-.41015-18.27084,5.99835-.20684,5.92941,14.48776,3.42538,15.16825,8.48043.48263,3.58522-1.44788,4.96415-1.44788,4.96415Z"/><path class="cls-1" d="m223.01279,58.13455c-8.27359-2.0684-9.72147-11.9967-8.89411-13.85826s3.72312-2.89576,4.34363-5.58467c0,0,18.04729-.41015,18.27084,5.99835.20684,5.92941-14.48776,3.42538-15.16825,8.48043-.48263,3.58522,1.44788,4.96415,1.44788,4.96415Z"/><text class="cls-3" transform="translate(99.26718 37.51516) rotate(13.45623)"><tspan x="0" y="0">T</tspan></text><text class="cls-3" transform="translate(105.19442 38.94582) rotate(11.66244)"><tspan x="0" y="0">H</tspan></text><text class="cls-3" transform="translate(112.18124 40.37453) rotate(9.69356)"><tspan x="0" y="0">E</tspan></text><text class="cls-3" transform="translate(117.34286 41.23879) rotate(8.4595)"><tspan x="0" y="0"> </tspan></text><text class="cls-3" transform="translate(119.22616 41.55617) rotate(6.9864)"><tspan x="0" y="0">O</tspan></text><text class="cls-3" transform="translate(126.22421 42.41359) rotate(4.61102)"><tspan x="0" y="0">N</tspan></text><text class="cls-3" transform="translate(133.32724 42.97121) rotate(2.60475)"><tspan x="0" y="0">E</tspan></text><text class="cls-3" transform="translate(138.5914 43.19289) rotate(1.43613)"><tspan x="0" y="0"> </tspan></text><text class="cls-3" transform="translate(140.7745 43.25246) rotate(.64161)"><tspan x="0" y="0">I</tspan></text><text class="cls-3" transform="translate(143.76181 43.27785) rotate(.09587)"><tspan x="0" y="0"> </tspan></text><text class="cls-3" transform="translate(145.97616 43.28664) rotate(-.8161)"><tspan x="0" y="0">L</tspan></text><text class="cls-3" transform="translate(150.69198 43.23488) rotate(-2.01338)"><tspan x="0" y="0">O</tspan></text><text class="cls-3" transform="translate(157.37167 43.00734) rotate(-3.72701)"><tspan x="0" y="0">V</tspan></text><text class="cls-3" transform="translate(163.90878 42.5757) rotate(-5.78477)"><tspan x="0" y="0">E</tspan></text><text class="cls-3" transform="translate(169.25644 42.01125) rotate(-7.44961)"><tspan x="0" y="0"> </tspan></text><text class="cls-3" transform="translate(171.5748 41.73977) rotate(-9.57509)"><tspan x="0" y="0">B</tspan></text><text class="cls-3" transform="translate(177.41024 40.74758) rotate(-13.11111)"><tspan x="0" y="0">E</tspan></text><text class="cls-3" transform="translate(182.76278 39.49074) rotate(-16.55438)"><tspan x="0" y="0">S</tspan></text><text class="cls-3" transform="translate(187.63876 38.02102) rotate(-17.85036)"><tspan x="0" y="0">T</tspan></text></g></g></svg>