<?xml version="1.0" encoding="UTF-8"?><svg xmlns="http://www.w3.org/2000/svg" viewBox="0 0 97.41157 102.5235"><defs><style>.cls-1{fill:none;mix-blend-mode:multiply;stroke:#3b7e91;stroke-miterlimit:10;stroke-width:.73211px;}.cls-2{isolation:isolate;}.cls-3{fill:#f7e288;stroke-width:0px;}</style></defs><g class="cls-2"><g id="Layer_1"><path class="cls-3" d="m84.46082,31.13528c-1.3661-1.58563-3.75896-1.76357-5.34454-.39742-.07632.06578-.13365.14411-.20345.2144.10791-1.00572-.17485-2.05058-.88717-2.87737-1.3661-1.58559-3.75891-1.76352-5.34454-.39738-.07217.06216-.12606.13647-.19237.20273.0454-.93605-.24608-1.89043-.90611-2.65645-1.3661-1.58559-3.75896-1.76352-5.34454-.39742-.07596.06546-.13303.14344-.20251.21341.01743-1.33424-.654-2.63813-1.89525-3.3458-1.70002-.96925-3.82004-.46418-4.9376,1.0899-.31476-.72608-.84619-1.36471-1.58662-1.78685-1.69466-.96621-3.80686-.46722-4.92719,1.07538-.31315-.73578-.84726-1.38379-1.59555-1.8104-1.81817-1.03664-4.13247-.40301-5.16907,1.41516-.04214.07395-.06466.15278-.1013.22825-.31967-.49747-.74561-.93561-1.29491-1.2488-1.81822-1.03659-4.13247-.40301-5.16911,1.41516-.23808.41758-.37794.86219-.44573,1.3106-.66392-.78412-1.63286-1.30515-2.7405-1.34688-2.09146-.07878-3.85078,1.55279-3.92956,3.64425-.00407.10765.01501.20975.01984.31543-.66388-.78323-1.63233-1.30349-2.73921-1.34523-2.09146-.07878-3.85078,1.55283-3.92956,3.64425-.0034.08995.01372.17498.01658.26364-.66379-.7797-1.63032-1.29706-2.73425-1.33866-2.09146-.07878-3.85078,1.55279-3.92956,3.64425-.02404.63859.12664,1.23754.3859,1.77581-.00827.00474-.01662.00979-.02489.01452-.63398-1.07368-1.77773-1.81634-3.1163-1.86674-2.09142-.07878-5.30151,2.4992-3.28566,5.88666-.02887.01984,29.95582,46.08597,29.95582,46.08597h12.12721s29.02605-45.44258,29.49115-46.57947,1.2379-3.58558-.01944-5.04489Z"/><line class="cls-1" x1="25.49798" y1="33.97525" x2="45.82481" y2="82.48404"/><line class="cls-1" x1="36.5227" y1="30.59893" x2="48.92552" y2="82.69075"/><line class="cls-1" x1="72.28415" y1="33.97525" x2="51.95732" y2="82.48404"/><line class="cls-1" x1="61.25943" y1="30.59893" x2="48.85661" y2="82.69075"/></g></g></svg>