<?xml version="1.0" encoding="UTF-8"?><svg xmlns="http://www.w3.org/2000/svg" viewBox="0 0 288 83.5763"><defs><style>.cls-1,.cls-2{mix-blend-mode:multiply;}.cls-1,.cls-2,.cls-3{stroke-width:0px;}.cls-1,.cls-3{fill:#f5989e;}.cls-2{fill:#399a75;}.cls-4{fill:#3b7e91;font-family:Odile-Regular, Odile;font-size:8.0804px;}.cls-5{isolation:isolate;}.cls-6{fill:none;stroke:#f5989e;stroke-miterlimit:10;stroke-width:.67337px;}</style></defs><g class="cls-5"><g id="Layer_1"><path class="cls-3" d="m145.67988,56.14272c24.71647,0,56.4672-10.07672,56.4672-10.07672l.38025,9.88659s1.14076,4.75317,15.40026,4.75317c14.2595,0,15.97064-10.45697,15.97064-10.45697l.76051-22.0547s-5.13342-5.32355-19.58305-5.32355c-14.44963,0-42.77851,12.35824-69.96663,12.35824h-2.21815c-27.18812,0-55.517-12.35824-69.96663-12.35824s-19.58305,5.32355-19.58305,5.32355l.76051,22.0547s1.71114,10.45697,15.97064,10.45697,15.40026-4.75317,15.40026-4.75317l.38025-9.88659s31.75073,10.07672,56.4672,10.07672h3.35977Z"/><path class="cls-2" d="m85.85291,46.066l-.38025,9.88659s-1.14076,4.75317-15.40026,4.75317-15.97064-10.45697-15.97064-10.45697c0,0,7.66844-6.59106,16.66778-6.59106s15.08339,2.40827,15.08339,2.40827Z"/><path class="cls-1" d="m85.85291,46.066l-.38025,9.88659s-4.07223-6.25328-11.48717-6.25328c-6.84456,0-7.05019,2.45074-7.05019,2.45074,0,0-.09506-2.09139.39517-8.18525,1.11434-.19497,2.26538-.30708,3.43905-.30708,8.99933,0,15.08339,2.40827,15.08339,2.40827Z"/><path class="cls-1" d="m76.84188,50.74434l-.34834,4.18009s-2.14.32914-5.43411,0c-4.45685-.44531-3.83174-2.43838-3.83174-2.43838,0,0,.84884-2.03758,4.73743-2.22938,3.05057-.15046,4.87677.48768,4.87677.48768Z"/><path class="cls-6" d="m54.10175,45.11537v5.13342s1.56855,10.45697,15.97064,10.45697,15.21014-3.91344,15.21014-4.8007c0-1.50517-5.13335-5.97315-12.00967-5.97315-4.31746,0-6.04517,1.3183-6.04517,2.55413s1.51382,2.43838,9.26586,2.43838"/><path class="cls-2" d="m202.14709,46.066l.38025,9.88659s1.14076,4.75317,15.40026,4.75317c14.2595,0,15.97064-10.45697,15.97064-10.45697,0,0-7.66844-6.59106-16.66778-6.59106-8.99933,0-15.08339,2.40827-15.08339,2.40827Z"/><path class="cls-1" d="m202.14709,46.066l.38025,9.88659s4.07223-6.25328,11.48717-6.25328c6.84456,0,7.05019,2.45074,7.05019,2.45074,0,0,.09506-2.09139-.39517-8.18525-1.11434-.19497-2.26538-.30708-3.43905-.30708-8.99933,0-15.08339,2.40827-15.08339,2.40827Z"/><path class="cls-1" d="m211.15812,50.74434l.34834,4.18009s2.14.32914,5.43411,0c4.45685-.44531,3.83174-2.43838,3.83174-2.43838,0,0-.84884-2.03758-4.73743-2.22938-3.05057-.15046-4.87677.48768-4.87677.48768Z"/><path class="cls-6" d="m233.89825,45.11537v5.13342s-1.56855,10.45697-15.97064,10.45697c-14.4021,0-15.21014-3.91344-15.21014-4.8007,0-1.50517,5.13335-5.97315,12.00967-5.97315,4.31746,0,6.04517,1.3183,6.04517,2.55413,0,1.23582-1.51382,2.43838-9.26586,2.43838"/><text class="cls-4" transform="translate(100.77347 42.65931) rotate(16.1108)"><tspan x="0" y="0">U</tspan></text><text class="cls-4" transform="translate(106.52543 44.29798) rotate(14.56756)"><tspan x="0" y="0">.</tspan></text><text class="cls-4" transform="translate(108.82572 44.922) rotate(12.77016)"><tspan x="0" y="0">R</tspan></text><text class="cls-4" transform="translate(114.34086 46.13782) rotate(10.73563)"><tspan x="0" y="0">.</tspan></text><text class="cls-4" transform="translate(115.87797 46.43372) rotate(10.00347)"><tspan x="0" y="0"> </tspan></text><text class="cls-4" transform="translate(118.02201 46.84485) rotate(7.88045)"><tspan x="0" y="0">K</tspan></text><text class="cls-4" transform="translate(123.94633 47.63001) rotate(5.67135)"><tspan x="0" y="0">i</tspan></text><text class="cls-4" transform="translate(126.50834 47.90149) rotate(3.76702)"><tspan x="0" y="0">n</tspan></text><text class="cls-4" transform="translate(131.41801 48.21692) rotate(1.39989)"><tspan x="0" y="0">d</tspan></text><text class="cls-4" transform="translate(135.99711 48.31165) rotate(-.25082)"><tspan x="0" y="0">.</tspan></text><text class="cls-4" transform="translate(137.57426 48.30872) rotate(-.92568)"><tspan x="0" y="0"> </tspan></text><text class="cls-4" transform="translate(139.66996 48.27747) rotate(-2.0502)"><tspan x="0" y="0">I</tspan></text><text class="cls-4" transform="translate(142.48734 48.17493) rotate(-3.27249)"><tspan x="0" y="0"> </tspan></text><text class="cls-4" transform="translate(144.17924 48.0929) rotate(-3.69636)"><tspan x="0" y="0">A</tspan></text><text class="cls-4" transform="translate(150.24174 47.70814) rotate(-4.92677)"><tspan x="0" y="0">m</tspan></text><text class="cls-4" transform="translate(157.35892 47.07337) rotate(-6.00962)"><tspan x="0" y="0"> </tspan></text><text class="cls-4" transform="translate(159.1226 46.91321) rotate(-7.13447)"><tspan x="0" y="0">G</tspan></text><text class="cls-4" transform="translate(165.36869 46.11243) rotate(-8.82563)"><tspan x="0" y="0">r</tspan></text><text class="cls-4" transform="translate(168.60551 45.61536) rotate(-10.37545)"><tspan x="0" y="0">a</tspan></text><text class="cls-4" transform="translate(172.65629 44.86634) rotate(-12.23204)"><tspan x="0" y="0">t</tspan></text><text class="cls-4" transform="translate(175.72074 44.21107) rotate(-14.03624)"><tspan x="0" y="0">e</tspan></text><text class="cls-4" transform="translate(179.58451 43.23353) rotate(-15.62895)"><tspan x="0" y="0">f</tspan></text><text class="cls-4" transform="translate(182.39701 42.44349) rotate(-16.36204)"><tspan x="0" y="0">u</tspan></text><text class="cls-4" transform="translate(186.92826 41.11341) rotate(-15.52948)"><tspan x="0" y="0">l</tspan></text></g></g></svg>