<?xml version="1.0" encoding="UTF-8"?><svg xmlns="http://www.w3.org/2000/svg" viewBox="0 0 97.41157 102.5235"><defs><style>.cls-1,.cls-2,.cls-3{mix-blend-mode:multiply;}.cls-1,.cls-2,.cls-4,.cls-5,.cls-6{stroke-width:0px;}.cls-1,.cls-4{fill:#f5989e;}.cls-2,.cls-6{fill:#399a75;}.cls-7{fill:#3b7e91;font-family:Odile-DecoInitials, Odile;font-size:8.45174px;font-style:italic;}.cls-8{letter-spacing:-.03998em;}.cls-9{letter-spacing:-.06003em;}.cls-3{fill:none;stroke:#f5989e;stroke-miterlimit:10;stroke-width:.70431px;}.cls-10{isolation:isolate;}.cls-5{fill:#f7e288;}</style></defs><g class="cls-10"><g id="Layer_1"><polyline class="cls-5" points="80.8993 28.12023 93.35862 40.84753 93.35862 73.7264 15.40389 73.7264 15.40389 28.12023 80.63131 28.12023"/><polygon class="cls-1" points="93.35862 40.84715 80.8993 40.84715 80.8993 28.12023 93.35862 40.84715"/><path class="cls-6" d="m24.31964,46.41923c0-2.57909-2.134-4.66981-4.7664-4.66981-.60802,0-1.18737.11585-1.72205.31918-1.18569-1.3947-3.70056-3.11223-7.82979-1.41993-6.06532,2.48577-7.35796,8.74999-7.35796,8.74999,3.18183-1.2926,3.97727-1.2926,9.54548-1.19317,1.1145.0199,2.03444-.14865,2.80482-.42584.14616.4708.36712.90898.64778,1.30378-.73152.49745-1.25881,1.22193-1.43429,2.09428-.25806,1.28293.3096,2.56379,1.36959,3.43017-.02657.09922-.05343.19817-.07703.30005-.52866,2.28179-.09109,4.33222.97741,4.57979,1.06846.24757,2.36321-1.40153,2.89192-3.68332.01535-.06633.02708-.13159.04084-.19749,1.56046-.26592,2.82124-1.3073,3.11275-2.75646.1726-.85791-.02304-1.71599-.4883-2.44957,1.36877-.82055,2.28523-2.29434,2.28523-3.98166Z"/><path class="cls-4" d="m25.66107,30.48912c1.24935-1.67145.91134-4.03608-.75491-5.28152-1.22072-.91242-2.81248-.96314-4.0694-.27203-.5306-2.42571-3.20328-4.27277-6.42887-4.27277-3.60702,0-6.53105,2.30741-6.53105,5.15368,0,.51431.09836,1.01008.27607,1.47874-.15424.03555-.30814.07437-.4555.1419-1.48746.68187-1.98831,2.77237-1.11876,4.66933.373.81372.94221,1.44534,1.58277,1.86386.00959.04879.01698.09814.02833.14646-1.0593.59895-1.76792,1.64884-1.76792,2.85288,0,1.61037,1.261,2.95214,2.94591,3.29226-.24555,1.28533.15381,2.59238,1.18126,3.36035,1.49554,1.11781,3.72068.66902,4.96999-1.00243.12054-.16129.21576-.33187.30947-.50257,2.45581,1.0431,5.72614-.06573,7.77245-2.80345,1.89598-2.53662,2.15382-5.68561.83289-7.77322.46556-.25285.88907-.59903,1.22726-1.05148Z"/><path class="cls-2" d="m8.15292,27.29521c-.15424.03555-.30814.07437-.4555.1419-1.48746.68187-1.98831,2.77237-1.11876,4.66933.373.81372.94221,1.44534,1.58277,1.86386,0,0,3.06631,3.3971,6.77844,1.97191s2.51895-5.13732,2.51895-5.13732c0,0-.46402-1.25947-1.6572-.89489s-2.68467.89489-3.54641.09943-1.6752-2.77694-4.10229-2.71423Z"/><ellipse class="cls-2" cx="12.55351" cy="23.34749" rx="2.75095" ry="1.9555" transform="translate(-13.94277 22.5454) rotate(-60)"/><ellipse class="cls-2" cx="21.60302" cy="29.66203" rx=".47692" ry="1.51812" transform="translate(-10.17538 48.01033) rotate(-83.93534)"/><line class="cls-3" x1="17.06109" y1="55.82863" x2="20.9058" y2="42.04072"/><text class="cls-7" transform="translate(35.99979 47.94775)"><tspan x="0" y="0">With</tspan><tspan x="0" y="10.1416" xml:space="preserve">     my l</tspan><tspan class="cls-8" x="27.39111" y="10.1416">ov</tspan><tspan x="35.84326" y="10.1416">e</tspan><tspan class="cls-9" x="39.93408" y="10.1416">.</tspan></text></g></g></svg>