<?xml version="1.0" encoding="UTF-8"?><svg xmlns="http://www.w3.org/2000/svg" xmlns:xlink="http://www.w3.org/1999/xlink" viewBox="0 0 97.41157 102.5235"><defs><style>.cls-1{fill:#f5989e;mix-blend-mode:multiply;}.cls-1,.cls-2,.cls-3,.cls-4{stroke-width:0px;}.cls-5{clip-path:url(#clippath);}.cls-2{fill:none;}.cls-6{isolation:isolate;}.cls-3{fill:#f7e288;}.cls-4{fill:#fff;}</style><clipPath id="clippath"><polygon class="cls-2" points="79.20217 41.38646 52.76376 41.38646 78.80039 36.79546 78.67687 36.09598 52.64363 40.68638 77.48401 31.64516 77.24114 30.9776 52.39733 40.02008 75.29399 26.80088 74.9387 26.18606 52.04386 39.40422 72.29555 22.41112 71.83894 21.86708 51.58587 38.86136 68.58028 18.60841 68.03624 18.15181 51.04292 38.40341 64.2613 15.50866 63.64648 15.15337 50.4278 38.04817 59.46975 13.20553 58.8022 12.96265 49.76042 37.80482 54.35103 11.77049 53.65155 11.64697 49.0609 37.6816 49.0609 11.24519 48.35032 11.24519 48.35032 37.6816 43.75967 11.64697 43.06019 11.77049 47.6508 37.80482 38.60902 12.96265 37.94147 13.20553 46.98334 38.04795 33.76509 15.15337 33.14958 15.50866 46.36813 38.40324 29.37498 18.15181 28.83094 18.60841 45.82535 38.86136 25.57228 21.86708 25.11568 22.41112 45.36658 39.40357 22.47287 26.18606 22.11758 26.80088 45.0148 40.02043 20.17008 30.9776 19.92721 31.64516 44.76759 40.68638 18.73435 36.09598 18.61084 36.79546 44.64746 41.38646 18.2094 41.38646 18.2094 42.09704 44.64351 42.09704 18.61084 46.68734 18.73435 47.38682 44.77128 42.79577 19.92721 51.83834 20.17008 52.50589 45.01155 43.46424 22.11758 56.68192 22.47287 57.29674 45.36923 44.07771 25.11568 61.07238 25.57228 61.61641 45.82336 44.62379 28.83094 64.87439 29.37498 65.33099 46.36813 45.07956 33.14958 67.97414 33.76509 68.32943 46.98334 45.43485 37.94147 70.27728 38.60902 70.52015 47.65102 45.67734 43.06019 71.713 43.75967 71.83652 48.35032 45.80189 48.35032 72.23761 49.0609 72.23761 49.0609 45.80189 53.65155 71.83652 54.35103 71.713 49.7602 45.67734 58.8022 70.52015 59.46975 70.27728 50.4278 45.43464 63.64648 68.32943 64.2613 67.97414 51.04292 45.07939 68.03624 65.33099 68.58028 64.87439 51.58787 44.62379 71.83894 61.61641 72.29555 61.07238 52.04121 44.07706 74.9387 57.29674 75.29399 56.68192 52.40058 43.46459 77.24114 52.50589 77.48401 51.83834 52.63994 42.79577 78.67687 47.38682 78.80039 46.68734 52.76771 42.09704 79.20217 42.09704 79.20217 41.38646"/></clipPath></defs><g class="cls-6"><g id="Layer_1"><path class="cls-3" d="m58.13294,63.85202c9.30044-3.73322,15.87094-12.82809,15.87094-23.46321,0-13.96166-11.31815-25.27981-25.27981-25.27981s-25.27981,11.31815-25.27981,25.27981c0,10.63512,6.5705,19.72998,15.87094,23.46321v8.49987h4.15331c-1.57915,1.16232-2.57697,2.83507-2.57697,4.70103,0,2.04426,1.1952,3.85804,3.04424,5.02019v3.40196h-7.69631v5.80324h24.96915v-5.80324h-7.69631v-3.40192c1.84909-1.16215,3.04429-2.97593,3.04429-5.02023,0-1.86596-.99782-3.53871-2.57697-4.70103h4.15331v-8.49987Z"/><g class="cls-5"><circle class="cls-1" cx="48.70562" cy="40.39631" r="25.28731"/></g><circle class="cls-4" cx="48.63312" cy="40.38883" r="18.64362"/></g></g></svg>