<?xml version="1.0" encoding="UTF-8"?><svg xmlns="http://www.w3.org/2000/svg" viewBox="0 0 97.41157 102.5235"><defs><style>.cls-1{fill:#3b7e91;}.cls-1,.cls-2,.cls-3,.cls-4,.cls-5{stroke-width:0px;}.cls-1,.cls-6{mix-blend-mode:multiply;}.cls-7{isolation:isolate;}.cls-2{fill:#f5989e;}.cls-3{fill:#f7e288;}.cls-4{fill:#399a75;}.cls-5{fill:#ac936e;}.cls-6{fill:none;stroke:#f5989e;stroke-miterlimit:10;stroke-width:.77361px;}</style></defs><g class="cls-7"><g id="Layer_1"><path class="cls-2" d="m14.23011,47.37393c7.86351-14.19801,22.71681-15.50859,22.71681-15.50859l-1.96588-7.42665s-7.64508-1.09215-14.19801-3.49489c20.5325-12.45056,35.16737.43686,35.16737.43686,0,0,1.5207-4.16098,6.3345-3.93176,3.05803.14562,5.09672,2.54836,5.46077,5.24234,2.25712,1.01934,3.85895,2.69398,4.36862,4.58705-2.40274.14562-4.44143.7281-4.44143.7281,0,0,2.25712,9.31972.29124,16.09108s-6.98979,16.16389-29.05131,19.65878c-6.11606,5.46077-12.66899,10.70311-12.66899,10.70311l.43686-10.04782-8.08194-3.05803,20.31407-14.19801s-4.15019-6.98979-24.68269.21843Z"/><polygon class="cls-3" points="34.39856 78.82797 75.46357 65.28526 80.12343 55.6743 83.18146 55.09182 77.64788 67.61519 35.27228 81.44914 34.39856 78.82797"/><path class="cls-4" d="m29.42475,91.10733s-1.61041-15.57013,5.10934-12.9618c6.71975,2.60833-5.10934,12.9618-5.10934,12.9618Z"/><path class="cls-4" d="m74.70439,80.00438s-15.6266-.9119-11.9726-7.12533c3.654-6.21343,11.9726,7.12533,11.9726,7.12533Z"/><path class="cls-5" d="m48.0869,57.53096s.10922,6.73495.10922,10.5939c4.11378,2.8396,4.40502,4.36862,5.56999,6.22528.94653-1.12856,1.09215-1.71104,1.31059-2.51196,1.05575.87372,1.12856,1.71104,1.85666,3.16725,1.60183-3.34927.65529-6.00685.65529-6.00685l-7.20822-1.96588-.10922-10.15704-2.18431.65529Z"/><path class="cls-2" d="m67.67291,28.00693s2.25893,9.322.29398,16.0911c-1.965,6.7691-6.99347,16.16074-29.05683,19.65748-6.11155,5.46169-12.66401,10.70675-12.66401,10.70675l.43322-10.0492-8.08424-3.05577,20.31503-14.20349s-4.14654-6.98568-24.67821.21663c7.85991-14.19579,22.71325-15.50319,22.71325-15.50319,0,0,5.46164-.76587,8.0842.76587l10.69905-7.86761s-.43322-1.19909.22433-3.38842c0,0,1.51629-4.15429,6.33588-3.92991,3.05577.14694,5.09037,2.55291,5.45395,5.24506,2.25898,1.02117,3.86036,2.69215,4.37092,4.58751-2.39818.14699-4.44052.7272-4.44052.7272Z"/><path class="cls-1" d="m55.72835,24.76549l-10.69905,7.86761c-2.62255-1.53173-8.0842-.76587-8.0842-.76587l-1.965-7.42665s-7.64328-1.09082-14.19574-3.49674c20.53162-12.44737,35.16832.43322,35.16832.43322-.65755,2.18933-.22433,3.38842-.22433,3.38842Z"/><circle class="cls-4" cx="61.90265" cy="23.838" r=".7099"/><line class="cls-6" x1="34.39856" y1="78.09987" x2="31.38934" y2="84.79842"/><line class="cls-6" x1="62.91913" y1="72.90872" x2="69.27176" y2="76.59247"/></g></g></svg>