<?xml version="1.0" encoding="UTF-8"?><svg xmlns="http://www.w3.org/2000/svg" viewBox="0 0 97.41157 102.5235"><defs><style>.cls-1{fill:#3b7e91;mix-blend-mode:multiply;}.cls-1,.cls-2{stroke-width:0px;}.cls-3{isolation:isolate;}.cls-2{fill:#f5989e;}</style></defs><g class="cls-3"><g id="Layer_1"><path class="cls-2" d="m83.53666,21.39708l-6.17427-1.47644-22.41523,9.79829v-1.6107h-15.30145l-11.00628-5.23468-15.83834-1.47648-3.4898,5.90583v18.12015l7.24804,5.63734h12.21432l11.94583-12.08005-16.64367,41.60915,7.11382-5.23468,2.01336,7.24804,13.82497-38.52205,4.16091,8.32186-1.20799,7.24804,12.34854,15.5699-1.74492-9.52985,5.36894,1.8791-7.38226-10.73784.93955-8.85874-5.23472-8.99292,12.0801,7.51648,15.5699-3.35558,6.17427-17.71744-4.56361-4.02673Zm-57.71593,24.02597l-2.81869-1.6107-5.50316-1.74488v-10.60366l11.14055.80537,8.45603,4.02668-11.27473,9.12718Zm48.72301-2.55025l-16.10678-6.9796,21.47568-8.32186,1.74492,5.1005-7.11382,10.20095Z"/><path class="cls-2" d="m83.53666,21.39708l-6.17427-1.47644-22.41523,9.79829v-1.6107h-15.30145l-11.00628-5.23468-15.83834-1.47648-3.4898,5.90583v18.12015l7.24804,5.63734h12.21432l1.56805-1.58567,10.37778-10.49438-16.64367,41.60915,7.11382-5.23468,2.01336,7.24804,13.82497-38.52205,4.16091,8.32186-1.20799,7.24804,12.34854,15.5699-1.74492-9.52985,5.36894,1.8791-7.38226-10.73784.93955-8.85874-5.23472-8.99292,12.0801,7.51648,15.5699-3.35558,6.17427-17.71744-4.56361-4.02673Zm-57.71593,24.02597l-2.81869-1.6107-5.50316-1.74488v-10.60366l11.14055.80537,8.45603,4.02668-11.27473,9.12718Zm48.72301-2.55025l-16.10678-6.9796,21.47568-8.32186,1.74492,5.1005-7.11382,10.20095Z"/><polygon class="cls-1" points="25.82074 45.42306 30.3417 49.47473 31.49165 48.20818 27.16296 44.38282 25.82074 45.42306"/><polygon class="cls-1" points="74.54375 42.87281 76.6913 44.23182 79.66098 43.62782 75.43295 41.5138 74.54375 42.87281"/><polygon class="cls-1" points="81.65756 32.67185 83.33534 38.94678 84.04001 36.63143 81.65756 32.67185"/><polygon class="cls-1" points="58.43696 35.89321 57.76581 28.47735 54.94716 29.71894 55.06711 32.04779 50.97079 32.04779 50.97079 32.85639 55.09814 32.85639 55.09814 32.65044 55.34983 37.53742 58.43696 35.89321"/><polygon class="cls-1" points="54.27615 38.62399 41.03053 38.62399 40.90802 37.72896 40.90706 37.65328 47.90938 35.6158 47.90938 34.70976 40.89535 36.75068 40.8077 29.98229 40.09464 29.99204 40.18795 37.19717 28.78836 31.9453 17.52456 31.10829 17.47303 31.81996 28.54916 32.62006 40.2249 37.99871 40.40869 39.33705 48.33876 39.33705 47.02797 44.0808 48.1689 46.42972 53.98359 39.33705 54.27615 39.33705 54.27615 38.62399"/></g></g></svg>