<?xml version="1.0" encoding="UTF-8"?><svg xmlns="http://www.w3.org/2000/svg" viewBox="0 0 97.41157 102.5235"><defs><style>.cls-1{mix-blend-mode:multiply;}.cls-1,.cls-2,.cls-3{fill:#399a75;}.cls-1,.cls-4,.cls-5,.cls-3{stroke-width:0px;}.cls-6{fill:none;stroke:#f5989e;stroke-miterlimit:10;stroke-width:.83548px;}.cls-2{font-family:Odile-Regular, Odile;font-size:10.02576px;}.cls-7{isolation:isolate;}.cls-4{fill:#f5989e;}.cls-5{fill:#f7e288;}</style></defs><g class="cls-7"><g id="Layer_1"><ellipse class="cls-4" cx="11.91559" cy="38.65051" rx="2.8308" ry="5.03253" transform="translate(-26.36747 25.6025) rotate(-54.04532)"/><ellipse class="cls-4" cx="17.70558" cy="36.5053" rx="2.8308" ry="5.03253" transform="translate(-9.67559 6.56543) rotate(-16.57009)"/><polygon class="cls-3" points="48.69384 43.47847 47.1605 29.08858 50.58104 26.84753 51.87849 30.50398 55.88879 23.66289 57.42214 27.43728 60.37088 22.71929 62.25808 27.20138 66.03248 25.66804 64.02733 30.26808 66.50428 32.27323 61.43243 33.68863 55.65289 40.64767 48.69384 43.47847"/><ellipse class="cls-4" cx="35.64072" cy="31.4869" rx="2.8308" ry="5.03253" transform="translate(-9.52524 16.59659) rotate(-23.21274)"/><ellipse class="cls-4" cx="19.96752" cy="23.89756" rx="2.8308" ry="5.03253" transform="translate(-7.80272 9.80468) rotate(-23.21274)"/><ellipse class="cls-4" cx="47.24404" cy="27.41578" rx="5.03253" ry="2.8308" transform="translate(-3.35372 47.99468) rotate(-52.25899)"/><line class="cls-6" x1="21.32947" y1="26.96548" x2="31.23726" y2="44.06822"/><line class="cls-6" x1="36.89886" y1="34.51428" x2="40.90915" y2="43.95027"/><line class="cls-6" x1="44.8015" y1="29.91423" x2="33.36036" y2="46.78107"/><ellipse class="cls-3" cx="11.50937" cy="56.4469" rx="2.28394" ry="8.39088" transform="translate(-38.53837 27.91724) rotate(-48.79027)"/><ellipse class="cls-3" cx="9.22955" cy="66.21757" rx="8.39088" ry="2.28394" transform="translate(-15.64893 4.16105) rotate(-13.91098)"/><ellipse class="cls-3" cx="18.35961" cy="69.91149" rx="8.39088" ry="2.28394" transform="translate(-51.36532 50.85563) rotate(-60)"/><path class="cls-5" d="m15.51061,38.09209v27.67891s11.32319,8.49239,34.59864,2.51626,31.4533-2.20173,31.4533-2.20173v-28.31579s-17.03366-2.42307-33.96957,3.46768c-14.46852,5.03253-32.08237-3.14533-32.08237-3.14533Z"/><path class="cls-3" d="m63.43758,69.19155c-3.64753-4.79939-.04516-11.58397,9.08214-11.32319,4.12825.11795,5.54365-4.9539,10.37959-1.6513,0,0,3.5385,2.359.82565,8.72829-2.71285,6.36929-13.68219,7.54879-13.68219,7.54879,0,0-4.36415-.35385-6.60519-3.3026Z"/><circle class="cls-3" cx="43.66132" cy="70.33173" r="6.44793"/><circle class="cls-4" cx="51.58228" cy="65.14193" r="5.34706"/><circle class="cls-5" cx="55.77084" cy="78.35232" r="5.03253"/><circle class="cls-4" cx="76.7371" cy="71.33296" r="11.32319"/><circle class="cls-5" cx="89.74041" cy="74.26339" r="6.60519"/><circle class="cls-1" cx="74.63084" cy="66.46672" r="1.63932"/><text class="cls-2" transform="translate(22.93281 56.2773) rotate(10.87718)"><tspan x="0" y="0">E</tspan></text><text class="cls-2" transform="translate(29.32979 57.40523) rotate(4.09703)"><tspan x="0" y="0">v</tspan></text><text class="cls-2" transform="translate(34.74141 57.79195) rotate(.8644)"><tspan x="0" y="0">e</tspan></text><text class="cls-2" transform="translate(39.95283 57.82515) rotate(-4.61051)"><tspan x="0" y="0">r</tspan></text><text class="cls-2" transform="translate(44.27705 57.44527) rotate(-7.62961)"><tspan x="0" y="0"> </tspan></text><text class="cls-2" transform="translate(46.89619 57.10152) rotate(-9.70763)"><tspan x="0" y="0">t</tspan></text><text class="cls-2" transform="translate(50.92012 56.41109) rotate(-11.25343)"><tspan x="0" y="0">h</tspan></text><text class="cls-2" transform="translate(56.60469 55.27144) rotate(-11.09877)"><tspan x="0" y="0">i</tspan></text><text class="cls-2" transform="translate(59.5417 54.66207) rotate(-9.36543)"><tspan x="0" y="0">n</tspan></text><text class="cls-2" transform="translate(65.23994 53.71773) rotate(-5.01427)"><tspan x="0" y="0">e</tspan></text></g></g></svg>