<?xml version="1.0" encoding="UTF-8"?><svg id="Layer_1" xmlns="http://www.w3.org/2000/svg" viewBox="0 0 97.41157 102.5235"><defs><style>.cls-1{fill:#f7e288;}.cls-1,.cls-2{stroke-width:0px;}.cls-2{fill:#3b7e91;}</style></defs><path class="cls-1" d="m24.80933,68.5612l.31815-.73113c.01932-.04399,1.966-4.49883,4.54111-9.04076,2.33064-4.12473,4.43566-7.03512,6.25675-8.65202,4.5445-4.03015,9.40209-4.27375,10.32121-4.28191.32449-.57372,1.80747-2.80821,6.51576-5.6624,2.25692-1.36566,6.16234-2.22018,11.60702-2.53995,4.03516-.22889,7.45544-.06142,7.48968-.05933l.74322.03704-47.79291,30.93046Zm46.26724-30.51562c-1.22434-.03598-3.79332-.07647-6.67922.08683-5.29028.31117-9.2273,1.16543-11.38601,2.47214-5.21527,3.16202-6.39148,5.56963-6.4027,5.5935l-.06776.14396-.16001-.00549c-.05186-.00197-5.26804-.15677-10.1365,4.16061-1.78125,1.58104-3.85278,4.45023-6.15715,8.52915-1.94417,3.42818-3.52792,6.8059-4.18767,8.25658l45.17702-29.23729Z"/><path class="cls-1" d="m64.3837,37.89273c-4.06887.23891-8.8109.88003-11.49685,2.50582-5.3638,3.25235-6.49607,5.69763-6.49607,5.69763,0,0-5.30075-.2174-10.30555,4.2208-2.09952,1.86376-4.32871,5.2656-6.20719,8.59047,0,0,4.73743-12.73849,9.661-15.24114,4.10929-2.07956,5.9542-.82577,5.9542-.82577,0,0,.4424-2.33131,3.69801-3.90912,4.87937-2.36705,15.19244-1.03868,15.19244-1.03868Z"/><polygon class="cls-2" points="55.1193 74.37149 51.98235 71.19968 42.3326 26.07398 46.67823 27.23579 41.22246 21.12903 38.66176 28.90718 41.88158 26.26576 51.56033 71.52688 50.27871 75.44291 51.59599 81.39447 53.33234 78.12906 56.43661 80.32315 55.1193 74.37149"/></svg>